<?xml version="1.0" encoding="UTF-8"?>
<svg version="1.1" xmlns="http://www.w3.org/2000/svg" width="512" height="512">
<path d="M0 0 C10.45918988 7.48952704 15.64041833 17.43151202 17.85255432 29.94508362 C18.52657096 35.54979582 18.30331289 41.13499493 18.12704659 46.76363564 C18.02145413 50.5285599 17.99222282 54.29446269 17.95117188 58.06054688 C17.89758103 62.81546041 17.82144196 67.5658265 17.65014648 72.31811523 C16.20143004 90.953594 16.20143004 90.953594 22.90161133 107.36303711 C26.34564596 110.50550027 30.03830772 112.91488355 34.14814758 115.09642029 C37.29481398 116.82343522 39.98892333 118.97651204 42.8125 121.1875 C44.11380859 122.12916016 44.11380859 122.12916016 45.44140625 123.08984375 C47.25 125.25 47.25 125.25 47.96484375 128.5390625 C46.94635334 133.82630778 44.13266614 136.14587886 40.25 139.6875 C39.58226562 140.32365234 38.91453125 140.95980469 38.2265625 141.61523438 C36.58240682 143.17718227 34.92425288 144.72046313 33.25 146.25 C34.56165114 150.57844877 36.28303061 154.54619132 38.21972656 158.61621094 C53.26363393 190.47165299 59.69980404 224.58195246 59.625 259.625 C59.62418427 261.07066345 59.62418427 261.07066345 59.62335205 262.54553223 C59.58228755 278.43190897 58.61533669 293.67482497 55.25 309.25 C55.03037598 310.27915527 54.81075195 311.30831055 54.58447266 312.36865234 C53.04122063 319.39902267 51.25407713 326.33735043 49.25 333.25 C49.00975098 334.07951172 48.76950195 334.90902344 48.52197266 335.76367188 C41.84164765 358.07062038 30.87424275 380.38196326 17.25 399.25 C16.75757813 399.93868164 16.26515625 400.62736328 15.7578125 401.33691406 C9.70397928 409.75312509 3.31983406 417.65850828 -3.75 425.25 C-4.92141454 426.60006164 -6.0882942 427.95407514 -7.25 429.3125 C-14.40296215 437.4826265 -22.22530029 444.53906619 -30.75 451.25 C-32.2659375 452.4565625 -32.2659375 452.4565625 -33.8125 453.6875 C-55.74178219 470.99240149 -80.21000186 484.41203959 -106.75 493.25 C-107.57516113 493.52779297 -108.40032227 493.80558594 -109.25048828 494.09179688 C-121.85657826 498.27169798 -134.62390767 501.23846608 -147.75 503.25 C-149.45869263 503.51707764 -149.45869263 503.51707764 -151.2019043 503.78955078 C-162.49232161 505.38909208 -173.67020809 505.64811405 -185.0625 505.625 C-186.02777618 505.62478851 -186.99305237 505.62457703 -187.98757935 505.62435913 C-203.90576811 505.58966107 -219.13045651 504.52458819 -234.75 501.25 C-235.66604004 501.06808105 -236.58208008 500.88616211 -237.52587891 500.69873047 C-275.05830911 493.13819232 -311.49871091 476.01726922 -340.75 451.25 C-341.67353271 450.4765625 -341.67353271 450.4765625 -342.61572266 449.6875 C-377.57712934 420.32803459 -404.18789442 382.69994634 -418.75 339.25 C-419.02924316 338.42193848 -419.30848633 337.59387695 -419.59619141 336.74072266 C-423.77432201 324.13747407 -426.7372404 311.37239237 -428.75 298.25 C-428.92877686 297.11377197 -429.10755371 295.97754395 -429.29174805 294.80688477 C-430.91171715 283.42813519 -431.10823143 272.16841301 -431.0625 260.6875 C-431.06034485 259.71444916 -431.0581897 258.74139832 -431.05596924 257.73886108 C-431.00497257 243.39214268 -430.66134417 229.34634655 -427.75 215.25 C-427.55132324 214.26692871 -427.35264648 213.28385742 -427.14794922 212.27099609 C-420.42881578 179.96379196 -408.15885533 148.13870297 -388.75 121.25 C-388.27353027 120.58258789 -387.79706055 119.91517578 -387.30615234 119.22753906 C-373.91822771 100.58590167 -358.91812231 83.37227994 -340.75 69.25 C-339.76773438 68.46238281 -338.78546875 67.67476563 -337.7734375 66.86328125 C-315.01689174 48.75399736 -289.29029665 35.46199754 -261.75 26.25 C-260.96689453 25.98751465 -260.18378906 25.7250293 -259.37695312 25.45458984 C-251.28384023 22.79690906 -243.09018523 20.78276364 -234.75 19.0625 C-234.00395508 18.90740967 -233.25791016 18.75231934 -232.48925781 18.5925293 C-217.06127433 15.58973446 -201.80421691 14.87476233 -186.125 14.9375 C-185.15444672 14.93965515 -184.18389343 14.9418103 -183.18392944 14.94403076 C-168.85569102 14.9950666 -154.82814218 15.34241562 -140.75 18.25 C-139.76692871 18.44867676 -138.78385742 18.64735352 -137.77099609 18.85205078 C-122.31806656 22.0658942 -107.52372519 26.7356316 -92.75 32.25 C-91.94965332 32.5485791 -91.14930664 32.8471582 -90.32470703 33.15478516 C-88.4655039 33.85061058 -86.60759065 34.54988124 -84.75 35.25 C-84.32589844 34.7446875 -83.90179688 34.239375 -83.46484375 33.71875 C-78.66553134 28.40258856 -78.66553134 28.40258856 -74 27.625 C-70.577363 28.28319942 -69.94928551 28.77249162 -67.75 31.25 C-67.59144531 30.48816406 -67.43289063 29.72632813 -67.26953125 28.94140625 C-64.69661509 17.55518611 -60.04254151 7.59544502 -50.39453125 0.5234375 C-47.89967696 -1.04696691 -45.38611878 -2.43194061 -42.75 -3.75 C-42.08742188 -4.09160156 -41.42484375 -4.43320313 -40.7421875 -4.78515625 C-27.58178084 -10.33317082 -11.70148583 -7.17377523 0 0 Z M-39.75 13.25 C-40.636875 13.8275 -41.52375 14.405 -42.4375 15 C-49.63155217 21.99961833 -51.31904917 29.65026149 -51.4777832 39.41577148 C-51.36222912 43.3505259 -51.19310916 45.61349998 -48.90625 48.8984375 C-46.29196575 50.9253351 -43.60156898 52.57575441 -40.75 54.25 C-38.91244833 55.69792753 -37.09997666 57.17818974 -35.3125 58.6875 C-34.39597656 59.43902344 -33.47945313 60.19054687 -32.53515625 60.96484375 C-31.61605469 61.71894531 -30.69695312 62.47304687 -29.75 63.25 C-27.00318277 65.49810431 -24.2556744 67.74536025 -21.5078125 69.9921875 C-19.64658472 71.51596888 -17.7872517 73.04206716 -15.9296875 74.5703125 C-7.46218696 83.01835825 -7.46218696 83.01835825 2.25 88.25 C2.30090835 80.72439478 2.33582092 73.19883434 2.35986328 65.6730957 C2.36989132 63.11546163 2.38351707 60.55783894 2.40087891 58.00024414 C2.42526779 54.31393618 2.4365154 50.62778046 2.4453125 46.94140625 C2.45563507 45.80667374 2.46595764 44.67194122 2.47659302 43.50282288 C2.47806101 33.0032976 1.43217404 24.32615773 -5.75 16.25 C-15.57094836 8.25581507 -28.81234769 5.56696618 -39.75 13.25 Z " fill="#FEE4C1" transform="translate(441.75,6.75)"/>
<path d="M0 0 C12.81028066 3.83949588 23.58488811 11.19802997 30.81713867 22.66333008 C31.52841034 24.31145472 32.20922466 25.97434731 32.81713867 27.66333008 C33.47713867 27.66333008 34.13713867 27.66333008 34.81713867 27.66333008 C35.20579102 26.5747168 35.20579102 26.5747168 35.60229492 25.46411133 C40.4900748 14.19549984 51.46602478 5.85981201 62.66088867 1.40551758 C71.01361337 -1.46951447 82.84414633 -3.8979045 91.23120117 -0.30151367 C93.64845771 2.69326475 93.45393668 5.72945531 93.37963867 9.41333008 C93.37013184 10.16614258 93.360625 10.91895508 93.35083008 11.69458008 C92.93046055 23.28025593 88.87677787 33.4713072 81.81713867 42.66333008 C81.15713867 43.65333008 80.49713867 44.64333008 79.81713867 45.66333008 C80.86168213 45.64761963 81.90622559 45.63190918 82.98242188 45.61572266 C86.85685519 45.5614331 90.73125486 45.52698378 94.60595703 45.49853516 C96.28309787 45.48344624 97.96019925 45.4629726 99.63720703 45.43701172 C102.04754371 45.40063197 104.45735886 45.38360522 106.86791992 45.37036133 C107.61801834 45.35487747 108.36811676 45.33939362 109.14094543 45.32344055 C114.28970692 45.32177506 114.28970692 45.32177506 116.7956543 46.94458008 C118.6008165 49.98194669 118.12122747 53.42790253 118.00463867 56.85083008 C117.99110352 57.60041992 117.97756836 58.35000977 117.96362305 59.12231445 C117.92832407 60.96962775 117.87451785 62.81657074 117.81713867 64.66333008 C119.00307617 64.62208008 120.18901367 64.58083008 121.41088867 64.53833008 C125.37650671 64.53833008 128.57003621 65.30074736 132.31713867 66.66333008 C133.87948242 67.22020508 133.87948242 67.22020508 135.47338867 67.78833008 C136.24682617 68.07708008 137.02026367 68.36583008 137.81713867 68.66333008 C137.793573 67.77810669 137.793573 67.77810669 137.76953125 66.875 C137.70715928 64.20037422 137.6681421 61.52590143 137.62963867 58.85083008 C137.60450195 57.92206055 137.57936523 56.99329102 137.5534668 56.03637695 C137.53896484 54.69736328 137.53896484 54.69736328 137.52416992 53.33129883 C137.50060425 52.09802856 137.50060425 52.09802856 137.4765625 50.83984375 C137.81713867 48.66333008 137.81713867 48.66333008 138.83862305 46.88989258 C141.96214894 44.95349153 145.20745384 45.2968969 148.76635742 45.37036133 C149.53897415 45.37460617 150.31159088 45.37885101 151.10762024 45.38322449 C153.57364859 45.40000825 156.03885763 45.43765861 158.50463867 45.47583008 C160.1771529 45.49087737 161.84967996 45.5045657 163.5222168 45.5168457 C167.62083945 45.54991061 171.71885018 45.6016898 175.81713867 45.66333008 C175.27444336 44.88046631 174.73174805 44.09760254 174.17260742 43.29101562 C166.75446455 32.41524962 162.43058996 22.7027304 162.31713867 9.41333008 C162.31069336 8.68605713 162.30424805 7.95878418 162.29760742 7.20947266 C162.36631453 4.41989817 162.5334825 2.17534482 163.89916992 -0.28979492 C170.38989935 -3.83259632 181.05832863 -1.80879836 188 0 C200.81028066 3.83949588 211.58488811 11.19802997 218.81713867 22.66333008 C219.52841034 24.31145472 220.20922466 25.97434731 220.81713867 27.66333008 C221.47713867 27.66333008 222.13713867 27.66333008 222.81713867 27.66333008 C223.07237305 26.94016602 223.32760742 26.21700195 223.59057617 25.47192383 C229.06919415 12.92693553 240.75402072 5.84242872 252.81713867 0.66333008 C260.22806508 -2.04798446 271.89432473 -3.44758529 279.23120117 -0.30151367 C281.64845771 2.69326475 281.45393668 5.72945531 281.37963867 9.41333008 C281.37013184 10.16614258 281.360625 10.91895508 281.35083008 11.69458008 C280.93046055 23.28025593 276.87677787 33.4713072 269.81713867 42.66333008 C269.15713867 43.65333008 268.49713867 44.64333008 267.81713867 45.66333008 C268.86168213 45.64761963 269.90622559 45.63190918 270.98242188 45.61572266 C274.85685519 45.5614331 278.73125486 45.52698378 282.60595703 45.49853516 C284.28309787 45.48344624 285.96019925 45.4629726 287.63720703 45.43701172 C290.04754371 45.40063197 292.45735886 45.38360522 294.86791992 45.37036133 C295.61801834 45.35487747 296.36811676 45.33939362 297.14094543 45.32344055 C302.30605952 45.32176977 302.30605952 45.32176977 304.7956543 46.9855957 C306.4493058 49.70163134 306.0974459 52.22631992 306.00463867 55.35083008 C305.97756836 56.53032227 305.95049805 57.70981445 305.92260742 58.92504883 C305.87040039 60.28049805 305.87040039 60.28049805 305.81713867 61.66333008 C306.93088867 61.74583008 308.04463867 61.82833008 309.19213867 61.91333008 C314.43226057 62.54252034 319.01955101 64.54963879 323.81713867 66.66333008 C324.83420898 65.4509668 324.83420898 65.4509668 325.87182617 64.21411133 C332.399243 56.64405538 338.18016498 51.87565464 347.81713867 48.66333008 C349.85522617 48.51654261 351.89897756 48.44231109 353.94213867 48.41333008 C355.0172168 48.38754883 356.09229492 48.36176758 357.19995117 48.33520508 C361.71072973 48.74439017 365.59627252 50.08095277 369.81713867 51.66333008 C365.35799338 93.70497363 352.78976134 135.07906945 327.81713867 169.66333008 C327.07850586 170.69635254 327.07850586 170.69635254 326.32495117 171.75024414 C320.27111795 180.16645517 313.88697274 188.07183836 306.81713867 195.66333008 C305.64572413 197.01339172 304.47884447 198.36740522 303.31713867 199.72583008 C296.16417652 207.89595657 288.34183838 214.95239626 279.81713867 221.66333008 C278.30120117 222.86989258 278.30120117 222.86989258 276.75463867 224.10083008 C254.82535648 241.40573156 230.35713682 254.82536966 203.81713867 263.66333008 C202.99197754 263.94112305 202.16681641 264.21891602 201.31665039 264.50512695 C188.71056041 268.68502806 175.943231 271.65179616 162.81713867 273.66333008 C161.10844604 273.93040771 161.10844604 273.93040771 159.36523438 274.20288086 C148.07481706 275.80242216 136.89693058 276.06144413 125.50463867 276.03833008 C124.53936249 276.03811859 123.5740863 276.0379071 122.57955933 276.03768921 C106.66137056 276.00299115 91.43668216 274.93791826 75.81713867 271.66333008 C74.90109863 271.48141113 73.98505859 271.29949219 73.04125977 271.11206055 C35.50882957 263.5515224 -0.93157224 246.4305993 -30.18286133 221.66333008 C-31.10639404 220.88989258 -31.10639404 220.88989258 -32.04858398 220.10083008 C-72.85094678 185.83631749 -100.46011081 141.1292048 -114.18286133 89.66333008 C-114.39458984 88.87120117 -114.60631836 88.07907227 -114.82446289 87.26293945 C-116.80886188 79.23920933 -116.80886188 79.23920933 -115.18286133 75.66333008 C-108.27968598 70.98810263 -100.34543176 69.68326159 -92.18286133 70.66333008 C-90.69786133 71.15833008 -90.69786133 71.15833008 -89.18286133 71.66333008 C-89.22926758 70.90149414 -89.27567383 70.1396582 -89.32348633 69.35473633 C-89.57787932 62.07727969 -88.8201033 56.97798627 -85.18286133 50.66333008 C-84.31661133 49.11645508 -84.31661133 49.11645508 -83.43286133 47.53833008 C-77.01444825 39.33702448 -68.8070922 33.75547775 -58.31958008 32.25317383 C-47.85287064 31.91267267 -39.34984518 35.24999307 -31.18286133 41.66333008 C-30.77293945 42.20602539 -30.36301758 42.7487207 -29.94067383 43.30786133 C-27.02088276 45.55934466 -23.54749574 45.24224955 -19.99536133 45.35083008 C-19.24577148 45.38499023 -18.49618164 45.41915039 -17.72387695 45.4543457 C-15.87739295 45.53667302 -14.03015139 45.60168288 -12.18286133 45.66333008 C-12.70235352 44.97110352 -13.2218457 44.27887695 -13.75708008 43.56567383 C-21.29875295 32.98502742 -25.57141664 22.46768246 -25.68286133 9.41333008 C-25.68930664 8.68605713 -25.69575195 7.95878418 -25.70239258 7.20947266 C-25.63368547 4.41989817 -25.4665175 2.17534482 -24.10083008 -0.28979492 C-17.61010065 -3.83259632 -6.94167137 -1.80879836 0 0 Z " fill="#C57A44" transform="translate(131.182861328125,236.336669921875)"/>
<path d="M0 0 C12.81028066 3.83949588 23.58488811 11.19802997 30.81713867 22.66333008 C31.52841034 24.31145472 32.20922466 25.97434731 32.81713867 27.66333008 C33.47713867 27.66333008 34.13713867 27.66333008 34.81713867 27.66333008 C35.20579102 26.5747168 35.20579102 26.5747168 35.60229492 25.46411133 C40.4900748 14.19549984 51.46602478 5.85981201 62.66088867 1.40551758 C71.01361337 -1.46951447 82.84414633 -3.8979045 91.23120117 -0.30151367 C93.64845771 2.69326475 93.45393668 5.72945531 93.37963867 9.41333008 C93.37013184 10.16614258 93.360625 10.91895508 93.35083008 11.69458008 C92.93046055 23.28025593 88.87677787 33.4713072 81.81713867 42.66333008 C81.15713867 43.65333008 80.49713867 44.64333008 79.81713867 45.66333008 C80.86168213 45.64761963 81.90622559 45.63190918 82.98242188 45.61572266 C86.85685519 45.5614331 90.73125486 45.52698378 94.60595703 45.49853516 C96.28309787 45.48344624 97.96019925 45.4629726 99.63720703 45.43701172 C102.04754371 45.40063197 104.45735886 45.38360522 106.86791992 45.37036133 C107.61801834 45.35487747 108.36811676 45.33939362 109.14094543 45.32344055 C114.35905508 45.32175263 114.35905508 45.32175263 116.51596069 46.93008423 C118.10310871 49.04425904 118.19175926 50.11372818 118.18945312 52.73583984 C118.19568192 53.5500087 118.20191071 54.36417755 118.20832825 55.20301819 C118.19451363 56.51561867 118.19451363 56.51561867 118.18041992 57.85473633 C118.18116768 59.20631081 118.18116768 59.20631081 118.18193054 60.58518982 C118.17959065 62.48910733 118.16986712 64.39302796 118.15332031 66.296875 C118.12970089 69.21813463 118.13276323 72.13848345 118.1394043 75.05981445 C118.1338285 76.90812721 118.12671923 78.75643611 118.11791992 80.60473633 C118.11883133 81.48182755 118.11974274 82.35891876 118.12068176 83.2625885 C118.04816812 89.43230063 118.04816812 89.43230063 115.81713867 91.66333008 C113.43432617 92.07739258 113.43432617 92.07739258 110.69213867 92.28833008 C109.32702148 92.40047852 109.32702148 92.40047852 107.93432617 92.51489258 C107.2356543 92.56387695 106.53698242 92.61286133 105.81713867 92.66333008 C104.70483113 98.69339602 103.59415303 104.72375977 102.48443604 110.75430298 C101.8781012 114.04667851 101.27023313 117.33876875 100.66235352 120.63085938 C98.49664923 132.38165123 96.37261459 144.13814086 94.32104492 155.90942383 C93.72157405 159.32570601 93.12143792 162.74187082 92.52120972 166.15802002 C92.13579506 168.36626827 91.75437195 170.57521697 91.37698364 172.78485107 C90.84856152 175.87764459 90.30683905 178.96784448 89.76245117 182.05786133 C89.60962173 182.97546738 89.4567923 183.89307343 89.29933167 184.83848572 C89.14810349 185.68278641 88.99687531 186.5270871 88.84106445 187.39697266 C88.7149881 188.1285408 88.58891174 188.86010895 88.45901489 189.61384583 C87.58316291 192.41040502 87.07464404 193.71000744 84.81713867 195.66333008 C81.60607347 196.27523252 78.42075848 196.19862865 75.16088867 196.16503906 C74.17040527 196.17044205 73.17992187 196.17584503 72.15942383 196.18141174 C68.87836014 196.19394094 65.59816674 196.17737971 62.31713867 196.15942383 C60.04174758 196.15957872 57.76635621 196.16106603 55.4909668 196.16383362 C50.71936396 196.1652195 45.94806103 196.15262771 41.17651367 196.12988281 C35.05270256 196.10149792 28.92938999 196.10423314 22.80554199 196.11697292 C18.10615767 196.12391981 13.40688908 196.11615211 8.70751953 196.1037159 C6.44922326 196.09919177 4.19091461 196.09887294 1.93261719 196.1027813 C-1.2207191 196.10568376 -4.37336247 196.08923228 -7.52661133 196.06738281 C-8.93402588 196.07413528 -8.93402588 196.07413528 -10.36987305 196.08102417 C-11.22790527 196.07111954 -12.0859375 196.0612149 -12.9699707 196.05101013 C-13.71549194 196.04858024 -14.46101318 196.04615034 -15.22912598 196.04364681 C-17.72818482 195.55717668 -18.61255834 194.6269475 -20.18286133 192.66333008 C-20.79882812 190.76220703 -20.79882812 190.76220703 -21.13208008 188.65161133 C-21.32060547 187.515625 -21.32060547 187.515625 -21.51293945 186.35668945 C-21.63088867 185.57100586 -21.74883789 184.78532227 -21.87036133 183.97583008 C-22.0646875 182.77990234 -22.0646875 182.77990234 -22.26293945 181.55981445 C-22.58043529 179.59604394 -22.88309458 177.62988497 -23.18286133 175.66333008 C-23.85865234 175.68427734 -24.53444336 175.70522461 -25.23071289 175.72680664 C-28.29794387 175.81004651 -31.36493715 175.86201474 -34.43286133 175.91333008 C-35.49633789 175.9468457 -36.55981445 175.98036133 -37.65551758 176.01489258 C-38.68032227 176.0277832 -39.70512695 176.04067383 -40.76098633 176.05395508 C-41.70361328 176.07490234 -42.64624023 176.09584961 -43.61743164 176.11743164 C-46.970969 175.52382872 -48.12665461 174.32939845 -50.18286133 171.66333008 C-50.71862594 167.91297778 -50.83904624 165.70290393 -48.79223633 162.46020508 C-44.72117958 159.65678277 -40.74153619 160.23955961 -35.93286133 160.41333008 C-32.71536133 160.49583008 -29.49786133 160.57833008 -26.18286133 160.66333008 C-27.50286133 153.07333008 -28.82286133 145.48333008 -30.18286133 137.66333008 C-51.96286133 137.66333008 -73.74286133 137.66333008 -96.18286133 137.66333008 C-104.06515098 121.89875078 -104.06515098 121.89875078 -105.94848633 116.19067383 C-106.36356445 114.94092773 -106.77864258 113.69118164 -107.20629883 112.40356445 C-107.61106445 111.14866211 -108.01583008 109.89375977 -108.43286133 108.60083008 C-108.85651056 107.32906893 -109.2809892 106.05758378 -109.70629883 104.78637695 C-117.20406267 81.95120627 -117.20406267 81.95120627 -115.18286133 75.66333008 C-108.27968598 70.98810263 -100.34543176 69.68326159 -92.18286133 70.66333008 C-90.69786133 71.15833008 -90.69786133 71.15833008 -89.18286133 71.66333008 C-89.22926758 70.90149414 -89.27567383 70.1396582 -89.32348633 69.35473633 C-89.57787932 62.07727969 -88.8201033 56.97798627 -85.18286133 50.66333008 C-84.31661133 49.11645508 -84.31661133 49.11645508 -83.43286133 47.53833008 C-77.01444825 39.33702448 -68.8070922 33.75547775 -58.31958008 32.25317383 C-47.85287064 31.91267267 -39.34984518 35.24999307 -31.18286133 41.66333008 C-30.77293945 42.20602539 -30.36301758 42.7487207 -29.94067383 43.30786133 C-27.02088276 45.55934466 -23.54749574 45.24224955 -19.99536133 45.35083008 C-19.24577148 45.38499023 -18.49618164 45.41915039 -17.72387695 45.4543457 C-15.87739295 45.53667302 -14.03015139 45.60168288 -12.18286133 45.66333008 C-12.70235352 44.97110352 -13.2218457 44.27887695 -13.75708008 43.56567383 C-21.29875295 32.98502742 -25.57141664 22.46768246 -25.68286133 9.41333008 C-25.68930664 8.68605713 -25.69575195 7.95878418 -25.70239258 7.20947266 C-25.63368547 4.41989817 -25.4665175 2.17534482 -24.10083008 -0.28979492 C-17.61010065 -3.83259632 -6.94167137 -1.80879836 0 0 Z " fill="#D88A54" transform="translate(131.182861328125,236.336669921875)"/>
<path d="M0 0 C12.81028066 3.83949588 23.58488811 11.19802997 30.81713867 22.66333008 C31.52841034 24.31145472 32.20922466 25.97434731 32.81713867 27.66333008 C33.47713867 27.66333008 34.13713867 27.66333008 34.81713867 27.66333008 C35.19999023 26.57858398 35.19999023 26.57858398 35.59057617 25.47192383 C41.06919415 12.92693553 52.75402072 5.84242872 64.81713867 0.66333008 C72.22806508 -2.04798446 83.89432473 -3.44758529 91.23120117 -0.30151367 C93.64845771 2.69326475 93.45393668 5.72945531 93.37963867 9.41333008 C93.37013184 10.16614258 93.360625 10.91895508 93.35083008 11.69458008 C92.93046055 23.28025593 88.87677787 33.4713072 81.81713867 42.66333008 C81.15713867 43.65333008 80.49713867 44.64333008 79.81713867 45.66333008 C80.86168213 45.64761963 81.90622559 45.63190918 82.98242188 45.61572266 C86.85685519 45.5614331 90.73125486 45.52698378 94.60595703 45.49853516 C96.28309787 45.48344624 97.96019925 45.4629726 99.63720703 45.43701172 C102.04754371 45.40063197 104.45735886 45.38360522 106.86791992 45.37036133 C107.61801834 45.35487747 108.36811676 45.33939362 109.14094543 45.32344055 C114.30605952 45.32176977 114.30605952 45.32176977 116.7956543 46.9855957 C118.4493058 49.70163134 118.0974459 52.22631992 118.00463867 55.35083008 C117.9640332 57.12006836 117.9640332 57.12006836 117.92260742 58.92504883 C117.88780273 59.82868164 117.85299805 60.73231445 117.81713867 61.66333008 C118.93088867 61.74583008 120.04463867 61.82833008 121.19213867 61.91333008 C126.43226057 62.54252034 131.01955101 64.54963879 135.81713867 66.66333008 C136.83420898 65.4509668 136.83420898 65.4509668 137.87182617 64.21411133 C144.399243 56.64405538 150.18016498 51.87565464 159.81713867 48.66333008 C161.85522617 48.51654261 163.89897756 48.44231109 165.94213867 48.41333008 C167.0172168 48.38754883 168.09229492 48.36176758 169.19995117 48.33520508 C173.71072973 48.74439017 177.59627252 50.08095277 181.81713867 51.66333008 C179.5969122 72.59603444 175.70680859 92.96542674 168.87963867 112.91333008 C168.58033447 113.7924707 168.28103027 114.67161133 167.97265625 115.57739258 C165.17505574 123.37933737 161.5985119 130.10058362 157.81713867 137.66333008 C138.01713867 137.66333008 118.21713867 137.66333008 97.81713867 137.66333008 C94.64924946 155.2524915 94.64924946 155.2524915 91.50537109 172.84594727 C91.10365288 175.05085849 90.70112043 177.2556216 90.29760742 179.46020508 C90.09703735 180.60569824 89.89646729 181.75119141 89.68981934 182.93139648 C89.48715454 184.02726074 89.28448975 185.123125 89.07568359 186.25219727 C88.9046965 187.20261902 88.73370941 188.15304077 88.55754089 189.13226318 C87.23958096 193.63771261 87.23958096 193.63771261 84.81713867 195.66333008 C81.60407371 196.26831909 78.42166469 196.19863799 75.16088867 196.16503906 C74.17040527 196.17044205 73.17992187 196.17584503 72.15942383 196.18141174 C68.87836014 196.19394094 65.59816674 196.17737971 62.31713867 196.15942383 C60.04174758 196.15957872 57.76635621 196.16106603 55.4909668 196.16383362 C50.71936396 196.1652195 45.94806103 196.15262771 41.17651367 196.12988281 C35.05270256 196.10149792 28.92938999 196.10423314 22.80554199 196.11697292 C18.10615767 196.12391981 13.40688908 196.11615211 8.70751953 196.1037159 C6.44922326 196.09919177 4.19091461 196.09887294 1.93261719 196.1027813 C-1.2207191 196.10568376 -4.37336247 196.08923228 -7.52661133 196.06738281 C-8.93402588 196.07413528 -8.93402588 196.07413528 -10.36987305 196.08102417 C-11.22790527 196.07111954 -12.0859375 196.0612149 -12.9699707 196.05101013 C-13.71549194 196.04858024 -14.46101318 196.04615034 -15.22912598 196.04364681 C-17.73914563 195.55504303 -18.61658982 194.64803795 -20.18286133 192.66333008 C-20.91552734 190.27392578 -20.91552734 190.27392578 -21.43676758 187.33911133 C-21.75145996 185.61881714 -21.75145996 185.61881714 -22.07250977 183.86376953 C-22.29455078 182.58074951 -22.5165918 181.29772949 -22.74536133 179.97583008 C-22.99076024 178.60740126 -23.23721845 177.23916208 -23.48461914 175.87109375 C-24.05580672 172.69886155 -24.6188465 169.52529476 -25.17749023 166.35083008 C-26.34206051 159.74338101 -27.53520583 153.14112443 -28.72583008 146.53833008 C-30.49402433 136.71266546 -32.25964295 126.88654475 -34.01098633 117.05786133 C-34.20037277 116.00143433 -34.38975922 114.94500732 -34.58488464 113.85656738 C-35.89667837 106.47503014 -37.07090526 99.07751372 -38.18286133 91.66333008 C-39.80786133 91.70499674 -41.43286133 91.74666341 -43.05786133 91.78833008 C-45.80004883 91.85864258 -45.80004883 91.85864258 -48.18286133 91.66333008 C-50.52615167 89.32003973 -50.46976036 88.76495029 -50.63208008 85.57739258 C-50.67623047 84.73805176 -50.72038086 83.89871094 -50.76586914 83.03393555 C-50.80035156 82.12788574 -50.83483398 81.22183594 -50.87036133 80.28833008 C-50.90871094 79.36036621 -50.94706055 78.43240234 -50.98657227 77.47631836 C-51.2136287 70.82086703 -51.19623969 64.19216375 -50.93286133 57.53833008 C-50.90667725 56.69222168 -50.88049316 55.84611328 -50.85351562 54.97436523 C-50.55793921 49.28787138 -50.55793921 49.28787138 -49.14550781 46.93603516 C-46.04784396 44.92731247 -42.80170774 45.29670778 -39.23364258 45.37036133 C-38.46102585 45.37460617 -37.68840912 45.37885101 -36.89237976 45.38322449 C-34.42635141 45.40000825 -31.96114237 45.43765861 -29.49536133 45.47583008 C-27.8228471 45.49087737 -26.15032004 45.5045657 -24.4777832 45.5168457 C-20.37916055 45.54991061 -16.28114982 45.6016898 -12.18286133 45.66333008 C-12.72555664 44.88046631 -13.26825195 44.09760254 -13.82739258 43.29101562 C-21.24553545 32.41524962 -25.56941004 22.7027304 -25.68286133 9.41333008 C-25.68930664 8.68605713 -25.69575195 7.95878418 -25.70239258 7.20947266 C-25.63368547 4.41989817 -25.4665175 2.17534482 -24.10083008 -0.28979492 C-17.61010065 -3.83259632 -6.94167137 -1.80879836 0 0 Z " fill="#D88A55" transform="translate(319.182861328125,236.336669921875)"/>
<path d="M0 0 C10.45918988 7.48952704 15.64041833 17.43151202 17.85255432 29.94508362 C18.52657096 35.54979582 18.30331289 41.13499493 18.12704659 46.76363564 C18.02145413 50.5285599 17.99222282 54.29446269 17.95117188 58.06054688 C17.89758103 62.81546041 17.82144196 67.5658265 17.65014648 72.31811523 C16.20143004 90.953594 16.20143004 90.953594 22.90161133 107.36303711 C26.34564596 110.50550027 30.03830772 112.91488355 34.14814758 115.09642029 C37.29481398 116.82343522 39.98892333 118.97651204 42.8125 121.1875 C44.11380859 122.12916016 44.11380859 122.12916016 45.44140625 123.08984375 C47.25 125.25 47.25 125.25 47.96484375 128.53515625 C46.94311217 133.84481052 44.13669572 136.17305991 40.25 139.75 C39.60160156 140.37519531 38.95320312 141.00039062 38.28515625 141.64453125 C35.75533661 144.06414092 33.19639219 146.43627022 30.5415678 148.71894932 C25.7218484 152.87006316 21.17682808 157.20999174 16.7199707 161.74584961 C16.0148233 162.45888245 15.3096759 163.17191528 14.5831604 163.90655518 C13.06696844 165.43982024 11.55183836 166.97413597 10.03768349 168.50941277 C6.81654587 171.77286706 3.58586496 175.02680427 0.3557539 178.28137302 C-5.64535536 184.32813131 -11.64244619 190.37874774 -17.62329102 196.44555664 C-21.79737594 200.67890207 -25.98345882 204.90004568 -30.17783546 209.11328316 C-31.77199647 210.71920375 -33.36160717 212.3296545 -34.94656944 213.94465446 C-37.15574892 216.19467782 -39.37986622 218.42883455 -41.6081543 220.65991211 C-42.26021347 221.33151871 -42.91227264 222.00312531 -43.58409119 222.69508362 C-48.02675511 227.09818444 -48.02675511 227.09818444 -51.5193634 227.83131409 C-55.29072629 226.84847969 -57.23417799 223.80741077 -59.5625 220.875 C-60.04525391 220.29105469 -60.52800781 219.70710937 -61.02539062 219.10546875 C-61.51845703 218.50605469 -62.01152344 217.90664062 -62.51953125 217.2890625 C-63.25853416 216.39332425 -63.25853416 216.39332425 -64.01246643 215.47949028 C-65.75 213.25 -65.75 213.25 -67.39305115 210.71119881 C-70.98784259 205.41322351 -70.98784259 205.41322351 -76.40840149 202.32738876 C-79.56594505 201.98093202 -82.58990197 201.94633509 -85.765625 202.02294922 C-87.53765038 202.00612846 -87.53765038 202.00612846 -89.34547424 201.9889679 C-93.23180168 201.9637444 -97.11391674 202.0087951 -101 202.0546875 C-103.7014707 202.05643723 -106.40281278 202.04319843 -109.10424805 202.03030396 C-115.47580321 202.0084384 -121.84606954 202.03718859 -128.21744633 202.084427 C-135.4751352 202.13574977 -142.73243852 202.13018837 -149.99026108 202.12000632 C-164.91060221 202.1003407 -179.82993502 202.15159784 -194.75 202.25 C-194.72945557 203.20173096 -194.70891113 204.15346191 -194.68774414 205.1340332 C-194.75 208.25 -194.75 208.25 -195.74609375 210.10546875 C-198.93983972 211.92957707 -202.24040108 211.64145886 -205.8125 211.5625 C-206.54533203 211.56572266 -207.27816406 211.56894531 -208.03320312 211.57226562 C-213.48278061 211.51721939 -213.48278061 211.51721939 -215.75 209.25 C-216.00396729 207.16271973 -216.00396729 207.16271973 -216.00878906 204.55664062 C-216.01509338 203.58223022 -216.02139771 202.60781982 -216.02789307 201.60388184 C-216.0238446 200.54866333 -216.01979614 199.49344482 -216.015625 198.40625 C-216.01753845 197.32621704 -216.0194519 196.24618408 -216.02142334 195.13342285 C-216.02278607 192.84692146 -216.01908352 190.56041236 -216.01074219 188.27392578 C-216.00004412 184.76447245 -216.01063473 181.25553107 -216.0234375 177.74609375 C-216.02211592 175.5286447 -216.01955356 173.31119597 -216.015625 171.09375 C-216.01967346 170.03853149 -216.02372192 168.98331299 -216.02789307 167.89611816 C-216.02158875 166.92170776 -216.01528442 165.94729736 -216.00878906 164.94335938 C-216.00719788 164.08335327 -216.00560669 163.22334717 -216.00396729 162.33728027 C-215.75 160.25 -215.75 160.25 -213.75 158.25 C-211.05837575 158.02447762 -208.50330256 157.9256671 -205.8125 157.9375 C-205.08353516 157.92138672 -204.35457031 157.90527344 -203.60351562 157.88867188 C-200.6631982 157.88597681 -198.33452706 157.91614731 -195.74609375 159.39453125 C-194.75 161.25 -194.75 161.25 -194.75 167.25 C-149.705 166.755 -149.705 166.755 -103.75 166.25 C-107.38 161.96 -111.01 157.67 -114.75 153.25 C-116.58060597 150.9518063 -118.39791602 148.64277931 -120.1875 146.3125 C-124.45455166 140.80773108 -128.9104671 135.49860259 -133.46704102 130.23217773 C-137.07105046 126.06125872 -140.58857137 121.83660384 -143.98828125 117.49609375 C-145.1697597 115.98977422 -146.37609154 114.50264442 -147.60546875 113.03515625 C-148.16878906 112.34292969 -148.73210937 111.65070313 -149.3125 110.9375 C-149.80878906 110.34324219 -150.30507813 109.74898438 -150.81640625 109.13671875 C-152.18598301 106.36891299 -151.73111133 105.18097407 -150.75 102.25 C-148.82131345 99.96128748 -146.91599586 97.92034392 -144.78076172 95.8425293 C-143.84643562 94.90973648 -143.84643562 94.90973648 -142.89323425 93.95809937 C-140.83123906 91.90398882 -138.75554605 89.8643101 -136.6796875 87.82421875 C-135.23962557 86.39416439 -133.80052165 84.96314473 -132.36233521 83.53120422 C-128.56940901 79.75922505 -124.76508726 75.99895666 -120.95782471 72.24145508 C-114.8826073 66.24142089 -108.82570792 60.22288381 -102.76703262 54.20615578 C-100.65703331 52.11373265 -98.54279981 50.02566996 -96.42770386 47.93840027 C-90.30954295 41.88833859 -84.2665147 35.8649021 -78.75 29.25 C-77.75 28.25 -77.75 28.25 -74.375 28 C-70.75 28.25 -70.75 28.25 -69.0234375 29.765625 C-68.60320312 30.25546875 -68.18296875 30.7453125 -67.75 31.25 C-67.59144531 30.48816406 -67.43289063 29.72632813 -67.26953125 28.94140625 C-64.69661509 17.55518611 -60.04254151 7.59544502 -50.39453125 0.5234375 C-47.89967696 -1.04696691 -45.38611878 -2.43194061 -42.75 -3.75 C-42.08742188 -4.09160156 -41.42484375 -4.43320313 -40.7421875 -4.78515625 C-27.58178084 -10.33317082 -11.70148583 -7.17377523 0 0 Z M-39.75 13.25 C-40.636875 13.8275 -41.52375 14.405 -42.4375 15 C-49.63155217 21.99961833 -51.31904917 29.65026149 -51.4777832 39.41577148 C-51.36222912 43.3505259 -51.19310916 45.61349998 -48.90625 48.8984375 C-46.29196575 50.9253351 -43.60156898 52.57575441 -40.75 54.25 C-38.91244833 55.69792753 -37.09997666 57.17818974 -35.3125 58.6875 C-34.39597656 59.43902344 -33.47945312 60.19054687 -32.53515625 60.96484375 C-31.61605469 61.71894531 -30.69695312 62.47304687 -29.75 63.25 C-27.00318277 65.49810431 -24.2556744 67.74536025 -21.5078125 69.9921875 C-19.64658472 71.51596888 -17.7872517 73.04206716 -15.9296875 74.5703125 C-7.46218696 83.01835825 -7.46218696 83.01835825 2.25 88.25 C2.30090835 80.72439478 2.33582092 73.19883434 2.35986328 65.6730957 C2.36989132 63.11546163 2.38351707 60.55783894 2.40087891 58.00024414 C2.42526779 54.31393618 2.4365154 50.62778046 2.4453125 46.94140625 C2.45563507 45.80667374 2.46595764 44.67194122 2.47659302 43.50282288 C2.47806101 33.0032976 1.43217404 24.32615773 -5.75 16.25 C-15.57094836 8.25581507 -28.81234769 5.56696618 -39.75 13.25 Z " fill="#FE99A0" transform="translate(441.75,6.75)"/>
<path d="M0 0 C3 1 3 1 4.91015625 4.19921875 C5.64483528 5.68692663 6.3606937 7.18400543 7.0625 8.6875 C7.44954102 9.51548096 7.83658203 10.34346191 8.23535156 11.1965332 C22.94512748 43.82319245 29.44202643 77.93291591 29.125 113.5625 C29.11493762 115.55663607 29.1058176 117.55077712 29.09765625 119.54492188 C29.0759296 124.36340762 29.04158441 129.18164641 29 134 C28.38942245 133.8595224 27.77884491 133.7190448 27.14976501 133.5743103 C26.34487137 133.39171661 25.53997772 133.20912292 24.71069336 133.02099609 C23.91449081 132.83926849 23.11828827 132.65754089 22.29795837 132.4703064 C13.53455991 130.67676549 4.70768806 131.31810871 -3 136 C-8.34094132 140.14290094 -12.86962573 144.65314563 -17 150 C-18.32064453 149.47599609 -18.32064453 149.47599609 -19.66796875 148.94140625 C-20.82941406 148.48636719 -21.99085938 148.03132812 -23.1875 147.5625 C-24.91033203 146.88380859 -24.91033203 146.88380859 -26.66796875 146.19140625 C-29.47123233 145.18906699 -32.07112576 144.47987205 -35 144 C-35.04898437 143.08476562 -35.09796875 142.16953125 -35.1484375 141.2265625 C-35.22320312 140.03804687 -35.29796875 138.84953125 -35.375 137.625 C-35.44460938 136.44164062 -35.51421875 135.25828125 -35.5859375 134.0390625 C-35.70217346 130.89437681 -35.70217346 130.89437681 -38 129 C-40.64787789 128.75456859 -43.19903823 128.62650614 -45.8515625 128.5859375 C-46.62559418 128.56657135 -47.39962585 128.5472052 -48.19711304 128.5272522 C-50.67296275 128.4674017 -53.14885883 128.42104989 -55.625 128.375 C-57.30210377 128.33682518 -58.97918784 128.29777375 -60.65625 128.2578125 C-64.77067353 128.16169591 -68.88518886 128.07768561 -73 128 C-71.54839933 125.03596008 -69.92561399 122.32872823 -68.125 119.5625 C-62.86009085 110.71022628 -60.66399824 102.04114731 -60.5625 91.8125 C-60.55234863 91.0692749 -60.54219727 90.3260498 -60.53173828 89.56030273 C-60.53234551 87.22429138 -60.53234551 87.22429138 -61 84 C-66.79855868 80.13429421 -75.51767635 81.53737246 -82.234375 82.4296875 C-96.54193718 85.49559368 -107.57902334 93.93308387 -115.6171875 105.828125 C-117.00824614 107.93055008 -117.00824614 107.93055008 -118 110 C-118.66 110 -119.32 110 -120 110 C-121.5859375 107.98828125 -121.5859375 107.98828125 -123.375 105.3125 C-131.78271598 92.81204122 -142.22325062 85.69278402 -156.87402344 82.37060547 C-162.83381779 81.33167944 -169.00354292 81.28969648 -175 82 C-177.88031069 84.88031069 -177.42691783 87.82331657 -177.4375 91.6875 C-177.41788434 103.99174864 -174.04788423 114.35269321 -166.35546875 124.14453125 C-165 126 -165 126 -165 128 C-177.21 128.33 -189.42 128.66 -202 129 C-202.33 136.26 -202.66 143.52 -203 151 C-204.815 150.525625 -206.63 150.05125 -208.5 149.5625 C-213.34698295 148.34501139 -218.03004738 147.47788006 -223 147 C-223.04898438 145.86820313 -223.09796875 144.73640625 -223.1484375 143.5703125 C-223.22346514 142.08851661 -223.29901297 140.606747 -223.375 139.125 C-223.4059375 138.37863281 -223.436875 137.63226563 -223.46875 136.86328125 C-223.55643831 132.46526812 -223.55643831 132.46526812 -226 129 C-228.64787789 128.75456859 -231.19903823 128.62650614 -233.8515625 128.5859375 C-234.62559418 128.56657135 -235.39962585 128.5472052 -236.19711304 128.5272522 C-238.67296275 128.4674017 -241.14885883 128.42104989 -243.625 128.375 C-245.30210377 128.33682518 -246.97918784 128.29777375 -248.65625 128.2578125 C-252.77067353 128.16169591 -256.88518886 128.07768561 -261 128 C-259.54839933 125.03596008 -257.92561399 122.32872823 -256.125 119.5625 C-250.86009085 110.71022628 -248.66399824 102.04114731 -248.5625 91.8125 C-248.55234863 91.0692749 -248.54219727 90.3260498 -248.53173828 89.56030273 C-248.53234551 87.22429138 -248.53234551 87.22429138 -249 84 C-254.79512063 80.13658624 -263.56366144 81.51144052 -270.26953125 82.46484375 C-284.80345344 85.6840218 -295.45512255 93.67014813 -303.65234375 105.86328125 C-305.01051958 107.93863292 -305.01051958 107.93863292 -306 110 C-306.66 110 -307.32 110 -308 110 C-309.89643957 107.40946355 -311.64156468 104.76331269 -313.37109375 102.06054688 C-315.44506428 98.92835588 -317.29901981 96.65957355 -320.359375 94.44921875 C-321.23078125 93.64097656 -322.1021875 92.83273438 -323 92 C-323.16806111 87.07917081 -320.75273913 82.98244444 -318.4375 78.75 C-318.07817383 78.08959717 -317.71884766 77.42919434 -317.34863281 76.7487793 C-314.1253699 70.9757606 -310.45935742 65.89441668 -306 61 C-305.11570312 60.02289063 -304.23140625 59.04578125 -303.3203125 58.0390625 C-289.94094581 43.73807136 -272.26623271 33.88985696 -253 30 C-250.66681301 29.97386732 -248.33314819 29.97060655 -246 30 C-245.97494385 30.96413818 -245.9498877 31.92827637 -245.92407227 32.92163086 C-245.83014694 36.48687842 -245.72989061 40.05192433 -245.62768555 43.61694336 C-245.58428015 45.16214289 -245.54260929 46.70739214 -245.50268555 48.25268555 C-245.44511801 50.46939096 -245.38138576 52.6858448 -245.31640625 54.90234375 C-245.29969376 55.5971434 -245.28298126 56.29194305 -245.26576233 57.00779724 C-245.43497144 60.28762029 -245.43497144 60.28762029 -244 63 C-241.34177343 63.12658222 -238.72112576 63.18520214 -236.0625 63.1875 C-234.9497168 63.20586914 -234.9497168 63.20586914 -233.81445312 63.22460938 C-231.87486371 63.22988478 -229.9357629 63.12188902 -228 63 C-225.4345406 60.4345406 -225.45953913 58.52313332 -225 55 C-209.36195225 54.78946828 -193.72428893 54.63091102 -178.08517456 54.53369045 C-170.82306458 54.4873426 -163.56183665 54.4241928 -156.30029297 54.32104492 C-149.96875434 54.23115057 -143.63785461 54.1732325 -137.30569553 54.15320355 C-133.95411787 54.14149868 -130.60580963 54.10937803 -127.25454712 54.04842949 C-123.50714227 53.98299272 -119.76351011 53.974102 -116.015625 53.97827148 C-114.91294785 53.945914 -113.81027069 53.91355652 -112.67417908 53.88021851 C-108.15462986 53.93455261 -105.19014533 54.04397005 -101.59117126 56.93498421 C-99.55079897 59.20326251 -97.75954124 61.51005785 -96 64 C-94.95573783 65.30731739 -93.90617071 66.61044547 -92.84765625 67.90625 C-91.91621534 69.10179241 -90.98775761 70.2996658 -90.0625 71.5 C-87.18168664 75.38263431 -87.18168664 75.38263431 -84 79 C-81.15830607 79.30386296 -79.56270868 79.37547327 -77.15098858 77.76622772 C-76.57302438 77.18365456 -75.99506018 76.60108139 -75.39958191 76.00085449 C-74.72799042 75.33613632 -74.05639893 74.67141815 -73.36445618 73.98655701 C-72.64372421 73.24784866 -71.92299225 72.50914032 -71.18041992 71.74804688 C-70.40915771 70.9775148 -69.63789551 70.20698273 -68.84326172 69.4131012 C-66.29363639 66.8599889 -63.76218191 64.28961528 -61.23046875 61.71875 C-59.46750686 59.94646407 -57.70343874 58.17527792 -55.93830872 56.40515137 C-51.76780825 52.21750248 -47.60858878 48.01886505 -43.45467979 43.81477499 C-38.26047555 38.5591931 -33.04898653 33.32085557 -27.83789062 28.08203125 C-18.54464222 18.7351395 -9.26690357 9.37300798 0 0 Z " fill="#FEE4C1" transform="translate(472,154)"/>
<path d="M0 0 C10.45811607 7.48875812 15.61964715 17.40474929 17.82810974 29.91389465 C18.64726091 36.3913483 18.49257555 42.90137879 18.4453125 49.41796875 C18.44157351 50.94924228 18.43873073 52.48051824 18.43673706 54.01179504 C18.42917026 58.00496244 18.40958321 61.99797993 18.3873291 65.99108887 C18.36671918 70.08062717 18.35770325 74.17019015 18.34765625 78.25976562 C18.32632936 86.25657854 18.29227954 94.25327052 18.25 102.25 C16.80620671 101.28472742 15.36257636 100.31921005 13.91986084 99.35232735 C12.46874349 98.39439942 10.99424663 97.47207183 9.51611328 96.55638123 C5.72379282 93.95760179 2.78479101 91.92900392 1.35449219 87.43850708 C1.03083815 84.0978268 1.02043877 80.88978514 1.125 77.53515625 C1.12169678 76.32484238 1.11839355 75.1145285 1.11499023 73.86753845 C1.11325143 70.01399945 1.17913791 66.16532481 1.25 62.3125 C1.27844608 58.46432387 1.29286854 54.61644595 1.29931641 50.76817322 C1.30789585 48.37952422 1.33151869 45.99086614 1.37255859 43.60255432 C1.49241258 33.0281153 0.46837621 24.40028911 -6.75 16.25 C-14.54036583 10.06483243 -21.97729282 9.46991694 -31.75 10.25 C-39.68166739 12.50917461 -44.57145158 18.38524187 -48.75 25.25 C-49.61419223 27.84257669 -49.92580932 29.59037707 -50.06640625 32.26171875 C-50.10830078 33.01904297 -50.15019531 33.77636719 -50.19335938 34.55664062 C-50.23267578 35.34232422 -50.27199219 36.12800781 -50.3125 36.9375 C-50.37727539 38.13342773 -50.37727539 38.13342773 -50.44335938 39.35351562 C-50.54927368 41.31881447 -50.65012551 43.28438496 -50.75 45.25 C-51.3275 44.92 -51.905 44.59 -52.5 44.25 C-54.94883862 42.97924102 -54.94883862 42.97924102 -58.75 43.25 C-60.90020241 44.98959436 -62.78732746 46.71016511 -64.7277832 48.66259766 C-65.60889015 49.52596237 -65.60889015 49.52596237 -66.50779724 50.4067688 C-68.44940896 52.31544068 -70.37565033 54.23877809 -72.30078125 56.1640625 C-73.64230508 57.49527622 -74.98420369 58.82611234 -76.32646179 60.15658569 C-79.13848756 62.94916182 -81.94236254 65.74963909 -84.74145508 68.55517578 C-88.33234589 72.1520665 -91.94771726 75.723187 -95.57029438 79.28812599 C-98.348982 82.02987547 -101.11152818 84.78745366 -103.86971092 87.54981613 C-105.19626316 88.87349114 -106.52844129 90.19155243 -107.86623573 91.50386429 C-109.73430848 93.34006004 -111.57889573 95.19705615 -113.41918945 97.06103516 C-113.97754486 97.60050781 -114.53590027 98.13998047 -115.11117554 98.69580078 C-117.70415553 101.36903174 -118.75636781 102.65877127 -118.71549988 106.45321655 C-117.47081139 110.05873142 -115.41119752 112.48955104 -112.875 115.25 C-111.86358175 116.39510481 -110.85453709 117.5423097 -109.84765625 118.69140625 C-109.07252686 119.57143311 -109.07252686 119.57143311 -108.28173828 120.46923828 C-105.85247311 123.29344296 -103.58613655 126.23769363 -101.3125 129.1875 C-97.04182604 134.69339136 -92.5865586 140.00685666 -88.02636719 145.27441406 C-84.47450814 149.38306356 -81.04119757 153.56774192 -77.671875 157.828125 C-74.08623264 162.34661741 -70.40876306 166.79068708 -66.75 171.25 C-65.24971683 173.08310162 -63.74971592 174.91643427 -62.25 176.75 C-61.5075 177.6575 -60.765 178.565 -60 179.5 C-57.75 182.25 -55.5 185 -53.25 187.75 C-52.51265625 188.65105469 -51.7753125 189.55210937 -51.015625 190.48046875 C-49.46297828 192.37844551 -47.91092466 194.27690757 -46.359375 196.17578125 C-45.58078125 197.12839844 -44.8021875 198.08101562 -44 199.0625 C-43.26523437 199.96742188 -42.53046875 200.87234375 -41.7734375 201.8046875 C-40.1053894 203.82051397 -38.38450154 205.75302041 -36.625 207.6875 C-34.75 210.25 -34.75 210.25 -34.95996094 212.20800781 C-36.37967406 215.87750119 -39.25230737 218.26433229 -42 221 C-42.57363281 221.60199219 -43.14726562 222.20398438 -43.73828125 222.82421875 C-46.1809597 225.27802558 -47.96906494 227.00916201 -51.30859375 228.0390625 C-55.14411246 226.79942285 -57.13832383 223.92813453 -59.5625 220.875 C-60.04525391 220.29105469 -60.52800781 219.70710937 -61.02539062 219.10546875 C-61.51845703 218.50605469 -62.01152344 217.90664062 -62.51953125 217.2890625 C-63.25853416 216.39332425 -63.25853416 216.39332425 -64.01246643 215.47949028 C-65.75 213.25 -65.75 213.25 -67.39305115 210.71119881 C-70.98784259 205.41322351 -70.98784259 205.41322351 -76.40840149 202.32738876 C-79.56594505 201.98093202 -82.58990197 201.94633509 -85.765625 202.02294922 C-87.53765038 202.00612846 -87.53765038 202.00612846 -89.34547424 201.9889679 C-93.23180168 201.9637444 -97.11391674 202.0087951 -101 202.0546875 C-103.7014707 202.05643723 -106.40281278 202.04319843 -109.10424805 202.03030396 C-115.47580321 202.0084384 -121.84606954 202.03718859 -128.21744633 202.084427 C-135.4751352 202.13574977 -142.73243852 202.13018837 -149.99026108 202.12000632 C-164.91060221 202.1003407 -179.82993502 202.15159784 -194.75 202.25 C-194.72945557 203.20173096 -194.70891113 204.15346191 -194.68774414 205.1340332 C-194.75 208.25 -194.75 208.25 -195.74609375 210.10546875 C-198.93983972 211.92957707 -202.24040108 211.64145886 -205.8125 211.5625 C-206.54533203 211.56572266 -207.27816406 211.56894531 -208.03320312 211.57226562 C-213.48278061 211.51721939 -213.48278061 211.51721939 -215.75 209.25 C-216.00396729 207.16271973 -216.00396729 207.16271973 -216.00878906 204.55664062 C-216.01509338 203.58223022 -216.02139771 202.60781982 -216.02789307 201.60388184 C-216.0238446 200.54866333 -216.01979614 199.49344482 -216.015625 198.40625 C-216.01753845 197.32621704 -216.0194519 196.24618408 -216.02142334 195.13342285 C-216.02278607 192.84692146 -216.01908352 190.56041236 -216.01074219 188.27392578 C-216.00004412 184.76447245 -216.01063473 181.25553107 -216.0234375 177.74609375 C-216.02211592 175.5286447 -216.01955356 173.31119597 -216.015625 171.09375 C-216.01967346 170.03853149 -216.02372192 168.98331299 -216.02789307 167.89611816 C-216.02158875 166.92170776 -216.01528442 165.94729736 -216.00878906 164.94335938 C-216.00719788 164.08335327 -216.00560669 163.22334717 -216.00396729 162.33728027 C-215.75 160.25 -215.75 160.25 -213.75 158.25 C-211.05837575 158.02447762 -208.50330256 157.9256671 -205.8125 157.9375 C-205.08353516 157.92138672 -204.35457031 157.90527344 -203.60351562 157.88867188 C-200.6631982 157.88597681 -198.33452706 157.91614731 -195.74609375 159.39453125 C-194.75 161.25 -194.75 161.25 -194.75 167.25 C-149.705 166.755 -149.705 166.755 -103.75 166.25 C-107.38 161.96 -111.01 157.67 -114.75 153.25 C-116.58060597 150.9518063 -118.39791602 148.64277931 -120.1875 146.3125 C-124.45455166 140.80773108 -128.9104671 135.49860259 -133.46704102 130.23217773 C-137.07105046 126.06125872 -140.58857137 121.83660384 -143.98828125 117.49609375 C-145.1697597 115.98977422 -146.37609154 114.50264442 -147.60546875 113.03515625 C-148.16878906 112.34292969 -148.73210937 111.65070313 -149.3125 110.9375 C-149.80878906 110.34324219 -150.30507813 109.74898438 -150.81640625 109.13671875 C-152.18598301 106.36891299 -151.73111133 105.18097407 -150.75 102.25 C-148.82131345 99.96128748 -146.91599586 97.92034392 -144.78076172 95.8425293 C-143.84643562 94.90973648 -143.84643562 94.90973648 -142.89323425 93.95809937 C-140.83123906 91.90398882 -138.75554605 89.8643101 -136.6796875 87.82421875 C-135.23962557 86.39416439 -133.80052165 84.96314473 -132.36233521 83.53120422 C-128.56940901 79.75922505 -124.76508726 75.99895666 -120.95782471 72.24145508 C-114.8826073 66.24142089 -108.82570792 60.22288381 -102.76703262 54.20615578 C-100.65703331 52.11373265 -98.54279981 50.02566996 -96.42770386 47.93840027 C-90.30954295 41.88833859 -84.2665147 35.8649021 -78.75 29.25 C-77.75 28.25 -77.75 28.25 -74.375 28 C-70.75 28.25 -70.75 28.25 -69.0234375 29.765625 C-68.60320312 30.25546875 -68.18296875 30.7453125 -67.75 31.25 C-67.59144531 30.48816406 -67.43289063 29.72632813 -67.26953125 28.94140625 C-64.69661509 17.55518611 -60.04254151 7.59544502 -50.39453125 0.5234375 C-47.89967696 -1.04696691 -45.38611878 -2.43194061 -42.75 -3.75 C-42.08742188 -4.09160156 -41.42484375 -4.43320313 -40.7421875 -4.78515625 C-27.58178084 -10.33317082 -11.70148583 -7.17377523 0 0 Z " fill="#FD8187" transform="translate(441.75,6.75)"/>
<path d="M0 0 C38.61 0 77.22 0 117 0 C117 5.43190213 116.59687606 10.08343228 115.56640625 15.33203125 C115.4132193 16.14161285 115.26003235 16.95119446 115.10220337 17.78530884 C114.59474784 20.46217547 114.07872692 23.13731225 113.5625 25.8125 C112.82728723 29.66341206 112.09663452 33.51517949 111.3671875 37.3671875 C111.17591782 38.37476608 110.98464813 39.38234467 110.7875824 40.42045593 C109.31703561 48.20944612 107.9302959 56.01133256 106.5703125 63.8203125 C106.16862007 66.11223762 105.76684667 68.40414855 105.36499023 70.69604492 C104.77614263 74.05658482 104.1909048 77.41754857 103.61697388 80.78067017 C103.0812701 83.91677364 102.53216876 87.05027096 101.98046875 90.18359375 C101.82446198 91.12022858 101.6684552 92.0568634 101.50772095 93.0218811 C101.35330536 93.88534149 101.19888977 94.74880188 101.03979492 95.63842773 C100.91070236 96.38809311 100.7816098 97.13775848 100.64860535 97.91014099 C99.8090843 100.61514588 99.09457736 102.05501483 97 104 C94.40727766 104.40349769 92.23323222 104.54739746 89.63867188 104.51757812 C88.89202774 104.5245874 88.14538361 104.53159668 87.37611389 104.53881836 C84.90661491 104.55643218 82.43826074 104.54476449 79.96875 104.53125 C78.25386332 104.53394396 76.53897813 104.53782558 74.82409668 104.54284668 C71.22942568 104.54874629 67.63515216 104.54016415 64.04052734 104.52148438 C59.42990228 104.49869425 54.8202085 104.5118149 50.20961761 104.53577423 C46.66828376 104.5502199 43.12717116 104.54563195 39.58583069 104.53526306 C37.88574616 104.53259235 36.18564162 104.53587762 34.48558044 104.54518127 C32.1102875 104.55532705 29.73650814 104.53987562 27.36132812 104.51757812 C26.30456627 104.52972351 26.30456627 104.52972351 25.22645569 104.54211426 C22.2512283 104.49030077 20.44705822 104.37923651 18.1385498 102.42094421 C16.65901306 99.27494575 15.99993773 96.14782142 15.421875 92.74731445 C15.28970581 92.02301239 15.15753662 91.29871033 15.0213623 90.55245972 C14.5870925 88.15782119 14.16851575 85.76071898 13.75 83.36328125 C13.44854479 81.68319348 13.14611987 80.00327944 12.84277344 78.3235321 C12.04508916 73.89137824 11.26068808 69.4569724 10.47900391 65.02197266 C9.69192025 60.56985524 8.89229579 56.11999494 8.09375 51.66992188 C6.78095276 44.34342796 5.47125541 37.01638754 4.18280029 29.6855669 C3.51418166 25.88344779 2.83347064 22.08417483 2.13085938 18.28817749 C1.92091339 17.13944672 1.92091339 17.13944672 1.70672607 15.96750927 C1.44248074 14.52316468 1.17426474 13.07953815 0.90118408 11.63683796 C0.16817123 7.60082025 0 4.174849 0 0 Z " fill="#F5A86B" transform="translate(307,328)"/>
<path d="M0 0 C38.61 0 77.22 0 117 0 C117 5.43190213 116.59687606 10.08343228 115.56640625 15.33203125 C115.4132193 16.14161285 115.26003235 16.95119446 115.10220337 17.78530884 C114.59474784 20.46217547 114.07872692 23.13731225 113.5625 25.8125 C112.82728723 29.66341206 112.09663452 33.51517949 111.3671875 37.3671875 C111.17591782 38.37476608 110.98464813 39.38234467 110.7875824 40.42045593 C109.31703561 48.20944612 107.9302959 56.01133256 106.5703125 63.8203125 C106.16862007 66.11223762 105.76684667 68.40414855 105.36499023 70.69604492 C104.77614263 74.05658482 104.1909048 77.41754857 103.61697388 80.78067017 C103.0812701 83.91677364 102.53216876 87.05027096 101.98046875 90.18359375 C101.82446198 91.12022858 101.6684552 92.0568634 101.50772095 93.0218811 C101.35330536 93.88534149 101.19888977 94.74880188 101.03979492 95.63842773 C100.91070236 96.38809311 100.7816098 97.13775848 100.64860535 97.91014099 C99.8090843 100.61514588 99.09457736 102.05501483 97 104 C94.40727766 104.40349769 92.23323222 104.54739746 89.63867188 104.51757812 C88.89202774 104.5245874 88.14538361 104.53159668 87.37611389 104.53881836 C84.90661491 104.55643218 82.43826074 104.54476449 79.96875 104.53125 C78.25386332 104.53394396 76.53897813 104.53782558 74.82409668 104.54284668 C71.22942568 104.54874629 67.63515216 104.54016415 64.04052734 104.52148438 C59.42990228 104.49869425 54.8202085 104.5118149 50.20961761 104.53577423 C46.66828376 104.5502199 43.12717116 104.54563195 39.58583069 104.53526306 C37.88574616 104.53259235 36.18564162 104.53587762 34.48558044 104.54518127 C32.1102875 104.55532705 29.73650814 104.53987562 27.36132812 104.51757812 C26.30456627 104.52972351 26.30456627 104.52972351 25.22645569 104.54211426 C22.2512283 104.49030077 20.44705822 104.37923651 18.1385498 102.42094421 C16.65901306 99.27494575 15.99993773 96.14782142 15.421875 92.74731445 C15.28970581 92.02301239 15.15753662 91.29871033 15.0213623 90.55245972 C14.5870925 88.15782119 14.16851575 85.76071898 13.75 83.36328125 C13.44854479 81.68319348 13.14611987 80.00327944 12.84277344 78.3235321 C12.04508916 73.89137824 11.26068808 69.4569724 10.47900391 65.02197266 C9.69192025 60.56985524 8.89229579 56.11999494 8.09375 51.66992188 C6.78095276 44.34342796 5.47125541 37.01638754 4.18280029 29.6855669 C3.51418166 25.88344779 2.83347064 22.08417483 2.13085938 18.28817749 C1.92091339 17.13944672 1.92091339 17.13944672 1.70672607 15.96750927 C1.44248074 14.52316468 1.17426474 13.07953815 0.90118408 11.63683796 C0.16817123 7.60082025 0 4.174849 0 0 Z " fill="#F5A86B" transform="translate(119,328)"/>
<path d="M0 0 C3 1 3 1 4.91015625 4.19921875 C5.64483528 5.68692663 6.3606937 7.18400543 7.0625 8.6875 C7.64306152 9.92947144 7.64306152 9.92947144 8.23535156 11.1965332 C22.94512748 43.82319245 29.44202643 77.93291591 29.125 113.5625 C29.11493762 115.55663607 29.1058176 117.55077712 29.09765625 119.54492188 C29.0759296 124.36340762 29.04158441 129.18164641 29 134 C28.08413368 133.7892836 28.08413368 133.7892836 27.14976501 133.5743103 C26.34487137 133.39171661 25.53997772 133.20912292 24.71069336 133.02099609 C23.91449081 132.83926849 23.11828827 132.65754089 22.29795837 132.4703064 C13.53455991 130.67676549 4.70768806 131.31810871 -3 136 C-8.34094132 140.14290094 -12.86962573 144.65314563 -17 150 C-17.88042969 149.65066406 -18.76085937 149.30132812 -19.66796875 148.94140625 C-20.82941406 148.48636719 -21.99085938 148.03132812 -23.1875 147.5625 C-24.91033203 146.88380859 -24.91033203 146.88380859 -26.66796875 146.19140625 C-29.47123233 145.18906699 -32.07112576 144.47987205 -35 144 C-35.04898438 143.08476562 -35.09796875 142.16953125 -35.1484375 141.2265625 C-35.22320312 140.03804687 -35.29796875 138.84953125 -35.375 137.625 C-35.44460938 136.44164062 -35.51421875 135.25828125 -35.5859375 134.0390625 C-35.70217346 130.89437681 -35.70217346 130.89437681 -38 129 C-40.64787789 128.75456859 -43.19903823 128.62650614 -45.8515625 128.5859375 C-46.62559418 128.56657135 -47.39962585 128.5472052 -48.19711304 128.5272522 C-50.67296275 128.4674017 -53.14885883 128.42104989 -55.625 128.375 C-57.30210377 128.33682518 -58.97918784 128.29777375 -60.65625 128.2578125 C-64.77067353 128.16169591 -68.88518886 128.07768561 -73 128 C-71.54839933 125.03596008 -69.92561399 122.32872823 -68.125 119.5625 C-62.86009085 110.71022628 -60.66399824 102.04114731 -60.5625 91.8125 C-60.54727295 90.69766235 -60.54727295 90.69766235 -60.53173828 89.56030273 C-60.53234551 87.22429138 -60.53234551 87.22429138 -61 84 C-64.60178588 81.59880941 -67.50866369 81.56228678 -71.6875 81.375 C-72.38939453 81.33632812 -73.09128906 81.29765625 -73.81445312 81.2578125 C-75.54254655 81.1637666 -77.27123675 81.0808032 -79 81 C-77.65323083 77.99976052 -76.16088099 75.91279995 -73.83627319 73.59576416 C-73.185634 72.94237564 -72.53499481 72.28898712 -71.86463928 71.61579895 C-71.15182297 70.91017319 -70.43900665 70.20454742 -69.70458984 69.47753906 C-68.57761436 68.3501255 -68.57761436 68.3501255 -67.4278717 67.19993591 C-64.94360487 64.71706229 -62.45232905 62.2413477 -59.9609375 59.765625 C-58.23700151 58.04541916 -56.51350659 56.3247712 -54.79043579 54.60369873 C-50.25415749 50.07505668 -45.71190506 45.55245285 -41.168396 41.03106689 C-36.53313047 36.41625986 -31.90352137 31.79578604 -27.2734375 27.17578125 C-18.18782914 18.11162268 -9.09609212 9.0536372 0 0 Z " fill="#FEE4C1" transform="translate(472,154)"/>
<path d="M0 0 C2.25580083 0.00342587 4.51160961 0.00328712 6.76741028 -0.00024414 C11.48105678 0.00305334 16.19279036 0.04028291 20.90600586 0.10351562 C26.93895606 0.18301053 32.96941274 0.19158612 39.00278759 0.17658997 C43.6553267 0.17044437 48.30730798 0.19471031 52.95971107 0.22885132 C55.18396824 0.24288146 57.40828858 0.249164 59.63258934 0.24746704 C62.74213885 0.25107363 65.84872816 0.29390756 68.95776367 0.34765625 C69.87066162 0.34179504 70.78355957 0.33593384 71.72412109 0.32989502 C77.47722264 0.48291911 80.51069584 1.70586643 84.67966175 5.70921326 C86.70760237 8.05612833 86.96470172 9.26727289 87.26953125 12.4375 C86.90031278 16.86812166 85.78864278 18.80529734 82.95703125 22.1875 C79.14151633 24.93854578 74.75027676 24.46645699 70.24609375 24.4609375 C68.50910815 24.4812276 66.77212903 24.50207841 65.03515625 24.5234375 C62.30756148 24.54602018 59.58022299 24.56250388 56.85253906 24.56835938 C54.21242396 24.57790771 51.57345149 24.61171139 48.93359375 24.6484375 C48.12403229 24.64339203 47.31447083 24.63834656 46.4803772 24.63314819 C41.19112914 24.72455873 38.14441277 25.66997193 33.95703125 29.1875 C31.49561878 32.8796187 31.27052918 35.90104805 31.95703125 40.1875 C34.12338591 43.74651123 36.10599127 45.67976149 39.95703125 47.1875 C42.95338621 47.48761397 42.95338621 47.48761397 46.29858398 47.44287109 C47.58349228 47.44983002 48.86840057 47.45678894 50.19224548 47.46395874 C50.87620832 47.4632777 51.56017117 47.46259666 52.26486015 47.46189499 C54.41325881 47.46092731 56.56116049 47.47389956 58.70948792 47.49087524 C64.81580786 47.53707719 70.92207565 47.56175341 77.02856445 47.56835938 C80.76813165 47.57337968 84.50717802 47.59765282 88.24656868 47.63368607 C89.66864963 47.6434702 91.09080233 47.64582352 92.51290703 47.64051437 C94.50398347 47.63342892 96.49510048 47.65283855 98.48608398 47.67333984 C99.61763412 47.67618988 100.74918427 47.67903992 101.9150238 47.68197632 C105.64560139 48.30192724 107.2674833 49.57692323 109.95703125 52.1875 C112.64477102 56.21910965 112.63119058 59.45173878 111.95703125 64.1875 C109.59304779 68.30258232 107.40744079 69.78558439 102.95703125 71.1875 C99.57751751 71.43359566 99.57751751 71.43359566 95.63615417 71.42800903 C94.90909328 71.42971788 94.18203239 71.43142673 93.43293935 71.43318737 C91.00231104 71.43647557 88.5719602 71.42548972 86.14135742 71.41455078 C84.39679979 71.41398652 82.65224168 71.41430351 80.90768433 71.41543579 C76.17461866 71.41600973 71.44165432 71.40424869 66.7086122 71.39028788 C61.76117577 71.37778744 56.81373702 71.37661056 51.86628723 71.37423706 C42.49890799 71.36802028 33.13157541 71.35160676 23.76421672 71.33153808 C13.09925581 71.30918527 2.43429267 71.2981872 -8.23068583 71.28814721 C-30.16813952 71.26724072 -52.1055512 71.23206087 -74.04296875 71.1875 C-72.80201781 68.66471261 -71.55659044 66.14429967 -70.30859375 63.625 C-69.9626416 62.92052734 -69.61668945 62.21605469 -69.26025391 61.49023438 C-61.3674713 45.59479284 -50.37654048 31.29449146 -38.91796875 17.8125 C-38.47606201 17.29042969 -38.03415527 16.76835938 -37.57885742 16.23046875 C-36.67107474 15.18198383 -35.73840254 14.15456757 -34.78295898 13.14932251 C-32.95627605 11.17444404 -32.95627605 11.17444404 -31.35505676 8.70223999 C-23.12349098 -1.86356713 -12.35095167 -0.19850297 0 0 Z " fill="#FFF2DD" transform="translate(110.04296875,86.8125)"/>
<path d="M0 0 C4.2232267 2.66481557 6.14656911 4.00798197 8.4453125 8.60546875 C-1.4546875 9.10046875 -1.4546875 9.10046875 -11.5546875 9.60546875 C-11.57759303 15.7110653 -11.59752117 21.81651391 -11.60961914 27.92211914 C-11.61466038 30.00090031 -11.62149324 32.07967791 -11.63012695 34.15844727 C-11.64220172 37.13949461 -11.64791774 40.12049524 -11.65234375 43.1015625 C-11.65750504 44.03697372 -11.66266632 44.97238495 -11.66798401 45.93614197 C-11.66809731 47.22736717 -11.66809731 47.22736717 -11.66821289 48.54467773 C-11.6704335 49.3063475 -11.67265411 50.06801727 -11.67494202 50.85276794 C-11.74559705 52.6335748 -11.74559705 52.6335748 -10.5546875 53.60546875 C-8.87284802 53.83833883 -7.1834459 54.01811041 -5.4921875 54.16796875 C-3.0234375 54.38671875 -3.0234375 54.38671875 -0.5546875 54.60546875 C1.70314327 63.90663253 3.53049818 73.23319349 5.1328125 82.66796875 C5.47022461 84.60446289 5.47022461 84.60446289 5.81445312 86.58007812 C7.4453125 96.09259831 7.4453125 96.09259831 7.4453125 100.60546875 C-14.3346875 100.60546875 -36.1146875 100.60546875 -58.5546875 100.60546875 C-66.43697715 84.84088945 -66.43697715 84.84088945 -68.3203125 79.1328125 C-68.73539063 77.88306641 -69.15046875 76.63332031 -69.578125 75.34570312 C-69.98289062 74.09080078 -70.38765625 72.83589844 -70.8046875 71.54296875 C-71.22833673 70.27120761 -71.65281538 68.99972245 -72.078125 67.72851562 C-79.57588884 44.89334494 -79.57588884 44.89334494 -77.5546875 38.60546875 C-70.65151215 33.9302413 -62.71725794 32.62540026 -54.5546875 33.60546875 C-53.0696875 34.10046875 -53.0696875 34.10046875 -51.5546875 34.60546875 C-51.62429687 33.46271484 -51.62429687 33.46271484 -51.6953125 32.296875 C-51.94970549 25.01941836 -51.19192947 19.92012495 -47.5546875 13.60546875 C-46.6884375 12.05859375 -46.6884375 12.05859375 -45.8046875 10.48046875 C-34.37279076 -4.12695486 -16.60564334 -9.06454843 0 0 Z " fill="#78A91F" transform="translate(93.5546875,273.39453125)"/>
<path d="M0 0 C1.07507813 -0.02578125 2.15015625 -0.0515625 3.2578125 -0.078125 C7.76859106 0.3310601 11.65413384 1.6676227 15.875 3.25 C13.65477352 24.18270436 9.76466992 44.55209666 2.9375 64.5 C2.4885437 65.81871094 2.4885437 65.81871094 2.03051758 67.1640625 C-0.76708293 74.96600729 -4.34362677 81.68725354 -8.125 89.25 C-27.925 89.25 -47.725 89.25 -68.125 89.25 C-66.99893348 74.6111353 -66.99893348 74.6111353 -65.75 68.015625 C-65.62061035 67.32611755 -65.4912207 66.63661011 -65.35791016 65.9262085 C-65.08894373 64.50095413 -64.81666617 63.07632048 -64.54101562 61.65234375 C-64.11774715 59.46247587 -63.70662138 57.27055941 -63.296875 55.078125 C-61.26924635 44.39424635 -61.26924635 44.39424635 -60.125 43.25 C-57.54602306 42.92762788 -54.96568179 42.73732696 -52.375 42.53125 C-50.15834648 42.48799335 -50.15834648 42.48799335 -49.125 41.25 C-48.96674742 39.25217874 -48.87380829 37.24911166 -48.80859375 35.24609375 C-48.76669922 34.03115234 -48.72480469 32.81621094 -48.68164062 31.56445312 C-48.64232422 30.28505859 -48.60300781 29.00566406 -48.5625 27.6875 C-48.51931641 26.40423828 -48.47613281 25.12097656 -48.43164062 23.79882812 C-48.325152 20.61600147 -48.22314038 17.43309326 -48.125 14.25 C-43.03601275 14.07601753 -39.34909198 14.15040356 -34.625 16.25 C-33.7690625 16.62125 -32.913125 16.9925 -32.03125 17.375 C-31.4021875 17.66375 -30.773125 17.9525 -30.125 18.25 C-29.44695312 17.44175781 -28.76890625 16.63351562 -28.0703125 15.80078125 C-20.27821519 6.76403453 -12.52025874 0.17759232 0 0 Z " fill="#78A91F" transform="translate(485.125,284.75)"/>
<path d="M0 0 C11.97598881 3.95501081 22.0219143 11.29737202 28.8125 22.0625 C29.52377167 23.71062464 30.20458599 25.37351724 30.8125 27.0625 C31.4725 27.0625 32.1325 27.0625 32.8125 27.0625 C33.07160156 26.33675781 33.33070313 25.61101562 33.59765625 24.86328125 C38.48543613 13.59466976 49.46138611 5.25898193 60.65625 0.8046875 C69.0089747 -2.07034455 80.83950766 -4.49873458 89.2265625 -0.90234375 C91.64381904 2.09243467 91.44929801 5.12862523 91.375 8.8125 C91.36073975 9.94171875 91.36073975 9.94171875 91.34619141 11.09375 C90.90257587 23.32010196 86.42225949 34.34546725 78.45671558 43.64540672 C75.60574582 46.10256023 71.90178428 45.51323414 68.30541992 45.51416016 C67.00248741 45.53168335 67.00248741 45.53168335 65.67323303 45.54956055 C62.79636661 45.58320533 59.9200147 45.59388983 57.04296875 45.6015625 C55.04380611 45.61373994 53.04464532 45.62622584 51.04548645 45.63900757 C46.85149033 45.6615016 42.65767612 45.67103947 38.46362305 45.67333984 C33.09293381 45.67862046 27.72376133 45.72992873 22.35348034 45.79285622 C18.22270269 45.83375091 14.09229043 45.84298227 9.96132851 45.84345627 C7.98175963 45.84883956 6.00218712 45.86570053 4.02281761 45.89430618 C1.25002134 45.93103201 -1.51933291 45.92331943 -4.29223633 45.90478516 C-5.51515884 45.93546585 -5.51515884 45.93546585 -6.76278687 45.96676636 C-10.18450537 45.90402116 -12.33191984 45.77709414 -15.01476097 43.53634262 C-19.08259262 38.87289597 -21.76620038 33.72937145 -24.1875 28.0625 C-24.50976562 27.31484375 -24.83203125 26.5671875 -25.1640625 25.796875 C-27.17152313 20.28104859 -27.49100011 14.93849088 -27.5625 9.125 C-27.57643799 8.37855225 -27.59037598 7.63210449 -27.60473633 6.86303711 C-27.5794874 3.98826623 -27.50494697 1.64544806 -26.11328125 -0.91015625 C-19.00117208 -4.70424289 -7.43685845 -2.22897438 0 0 Z " fill="#86BF26" transform="translate(133.1875,236.9375)"/>
<path d="M0 0 C11.97598881 3.95501081 22.0219143 11.29737202 28.8125 22.0625 C29.52377167 23.71062464 30.20458599 25.37351724 30.8125 27.0625 C31.4725 27.0625 32.1325 27.0625 32.8125 27.0625 C33.19535156 25.97775391 33.19535156 25.97775391 33.5859375 24.87109375 C39.06455548 12.32610545 50.74938204 5.24159864 62.8125 0.0625 C70.2234264 -2.64881454 81.88968606 -4.04841536 89.2265625 -0.90234375 C91.64381904 2.09243467 91.44929801 5.12862523 91.375 8.8125 C91.36073975 9.94171875 91.36073975 9.94171875 91.34619141 11.09375 C90.90257587 23.32010196 86.42225949 34.34546725 78.45671558 43.64540672 C75.60574582 46.10256023 71.90178428 45.51323414 68.30541992 45.51416016 C67.00248741 45.53168335 67.00248741 45.53168335 65.67323303 45.54956055 C62.79636661 45.58320533 59.9200147 45.59388983 57.04296875 45.6015625 C55.04380611 45.61373994 53.04464532 45.62622584 51.04548645 45.63900757 C46.85149033 45.6615016 42.65767612 45.67103947 38.46362305 45.67333984 C33.09293381 45.67862046 27.72376133 45.72992873 22.35348034 45.79285622 C18.22270269 45.83375091 14.09229043 45.84298227 9.96132851 45.84345627 C7.98175963 45.84883956 6.00218712 45.86570053 4.02281761 45.89430618 C1.25002134 45.93103201 -1.51933291 45.92331943 -4.29223633 45.90478516 C-5.51515884 45.93546585 -5.51515884 45.93546585 -6.76278687 45.96676636 C-10.18450537 45.90402116 -12.33191984 45.77709414 -15.01476097 43.53634262 C-19.08259262 38.87289597 -21.76620038 33.72937145 -24.1875 28.0625 C-24.50976562 27.31484375 -24.83203125 26.5671875 -25.1640625 25.796875 C-27.17152313 20.28104859 -27.49100011 14.93849088 -27.5625 9.125 C-27.57643799 8.37855225 -27.59037598 7.63210449 -27.60473633 6.86303711 C-27.5794874 3.98826623 -27.50494697 1.64544806 -26.11328125 -0.91015625 C-19.00117208 -4.70424289 -7.43685845 -2.22897438 0 0 Z " fill="#86BF26" transform="translate(321.1875,236.9375)"/>
<path d="M0 0 C1.26297661 -0.00262848 1.26297661 -0.00262848 2.5514679 -0.00531006 C5.33747424 -0.00970933 8.12341681 -0.00678964 10.90942383 -0.00341797 C12.87966422 -0.00409336 14.84990454 -0.00506535 16.82014465 -0.00631714 C20.9686461 -0.00779301 25.11712606 -0.00564973 29.265625 -0.00097656 C34.471397 0.00461364 39.67711682 0.00139076 44.88288689 -0.00438309 C63.73159867 -0.02250114 82.58522952 -0.01109333 101.43026161 0.40140152 C102.94775555 0.43327981 104.46535626 0.46046575 105.98302269 0.4826622 C108.04287331 0.51460225 110.10134712 0.56537551 112.16064453 0.62207031 C113.30692825 0.6474588 114.45321198 0.67284729 115.63423157 0.69900513 C118.42895508 1.12939453 118.42895508 1.12939453 120.30241394 2.46505737 C122.11577903 5.14409926 121.71060602 7.64714627 121.61645508 10.81689453 C121.57584961 12.58613281 121.57584961 12.58613281 121.53442383 14.39111328 C121.49961914 15.29474609 121.46481445 16.19837891 121.42895508 17.12939453 C123.07895508 17.12939453 124.72895508 17.12939453 126.42895508 17.12939453 C126.42895508 17.45939453 126.42895508 17.78939453 126.42895508 18.12939453 C124.77895508 18.12939453 123.12895508 18.12939453 121.42895508 18.12939453 C121.42895508 22.08939453 121.42895508 26.04939453 121.42895508 30.12939453 C104.13973784 30.19879669 86.85057611 30.25235536 69.56125164 30.28483105 C61.53378754 30.30030985 53.50641149 30.32141864 45.47900391 30.35571289 C38.48353655 30.38558434 31.48813296 30.40496216 24.4926036 30.41166002 C20.78738979 30.41557613 17.08235841 30.42480033 13.37720299 30.4465847 C9.24422435 30.47068807 5.11156428 30.47136598 0.97851562 30.4699707 C-0.87077797 30.48614944 -0.87077797 30.48614944 -2.75743103 30.50265503 C-3.88063751 30.49853104 -5.00384399 30.49440704 -6.16108704 30.49015808 C-7.13910939 30.49292346 -8.11713175 30.49568884 -9.12479115 30.49853802 C-11.57104492 30.12939453 -11.57104492 30.12939453 -13.38788128 28.77730274 C-15.18555816 26.27350158 -14.90857583 24.19400645 -14.86401367 21.14892578 C-14.8543457 19.98554688 -14.84467773 18.82216797 -14.8347168 17.62353516 C-14.79701172 15.80112305 -14.79701172 15.80112305 -14.75854492 13.94189453 C-14.74500977 12.71535156 -14.73147461 11.48880859 -14.7175293 10.22509766 C-14.68213233 7.19275789 -14.63275252 4.16129457 -14.57104492 1.12939453 C-9.69447153 0.155958 -4.95351475 -0.01279435 0 0 Z " fill="#E99B58" transform="translate(315.571044921875,280.87060546875)"/>
<path d="M0 0 C1.26297661 -0.00262848 1.26297661 -0.00262848 2.5514679 -0.00531006 C5.33747424 -0.00970933 8.12341681 -0.00678964 10.90942383 -0.00341797 C12.87966422 -0.00409336 14.84990454 -0.00506535 16.82014465 -0.00631714 C20.9686461 -0.00779301 25.11712606 -0.00564973 29.265625 -0.00097656 C34.471397 0.00461364 39.67711682 0.00139076 44.88288689 -0.00438309 C63.73159867 -0.02250114 82.58522952 -0.01109333 101.43026161 0.40140152 C102.94775555 0.43327981 104.46535626 0.46046575 105.98302269 0.4826622 C108.04287331 0.51460225 110.10134712 0.56537551 112.16064453 0.62207031 C113.30692825 0.6474588 114.45321198 0.67284729 115.63423157 0.69900513 C118.42895508 1.12939453 118.42895508 1.12939453 120.08531475 2.28251457 C122.00743364 4.92453327 121.76935272 6.86888902 121.72192383 10.10986328 C121.71225586 11.27324219 121.70258789 12.43662109 121.69262695 13.63525391 C121.66749023 14.85019531 121.64235352 16.06513672 121.61645508 17.31689453 C121.60291992 18.5434375 121.58938477 19.76998047 121.57543945 21.03369141 C121.54004249 24.06603117 121.49066268 27.09749449 121.42895508 30.12939453 C104.13974232 30.19942903 86.85057372 30.25235537 69.56125164 30.28483105 C61.53378754 30.30030985 53.50641149 30.32141864 45.47900391 30.35571289 C38.48353655 30.38558434 31.48813296 30.40496216 24.4926036 30.41166002 C20.78738979 30.41557613 17.08235841 30.42480033 13.37720299 30.4465847 C9.24422435 30.47068807 5.11156428 30.47136598 0.97851562 30.4699707 C-0.87077797 30.48614944 -0.87077797 30.48614944 -2.75743103 30.50265503 C-3.88063751 30.49853104 -5.00384399 30.49440704 -6.16108704 30.49015808 C-7.13910939 30.49292346 -8.11713175 30.49568884 -9.12479115 30.49853802 C-11.57104492 30.12939453 -11.57104492 30.12939453 -13.38788128 28.77730274 C-15.18555816 26.27350158 -14.90857583 24.19400645 -14.86401367 21.14892578 C-14.8543457 19.98554688 -14.84467773 18.82216797 -14.8347168 17.62353516 C-14.79701172 15.80112305 -14.79701172 15.80112305 -14.75854492 13.94189453 C-14.74500977 12.71535156 -14.73147461 11.48880859 -14.7175293 10.22509766 C-14.68213233 7.19275789 -14.63275252 4.16129457 -14.57104492 1.12939453 C-9.69447153 0.155958 -4.95351475 -0.01279435 0 0 Z " fill="#E99B58" transform="translate(127.571044921875,280.87060546875)"/>
<path d="M0 0 C11.98746644 -0.20357257 23.97377962 -0.36858151 35.96258545 -0.46630955 C41.52991095 -0.51322161 47.09598971 -0.5768183 52.66259766 -0.67895508 C58.03787424 -0.77696071 63.41195415 -0.83060263 68.78805542 -0.85389519 C70.83587481 -0.87048704 72.88363081 -0.90288952 74.93093872 -0.95157051 C90.97077715 -1.31769431 90.97077715 -1.31769431 95.979599 1.93482971 C98.02248196 4.19978747 99.50621237 6.35149856 101 9 C101.96073811 10.23564896 102.93776046 11.45909789 103.94140625 12.66015625 C104.81772332 13.79224826 105.6914444 14.92635473 106.5625 16.0625 C110.16548936 20.71921156 113.84632438 25.22789043 117.85546875 29.546875 C119 31 119 31 119 33 C79.73 33 40.46 33 0 33 C0 22.11 0 11.22 0 0 Z " fill="#FE646F" transform="translate(247,175)"/>
<path d="M0 0 C8.58 0 17.16 0 26 0 C26.68707031 4.02058594 27.37414062 8.04117187 28.08203125 12.18359375 C30.90031491 28.57379262 33.83914345 44.94144384 36.8215332 61.30249023 C37.40771957 64.51996522 37.99014099 67.73809026 38.56958008 70.95678711 C39.28313987 74.92045497 40.00265308 78.88299714 40.72657204 82.84478569 C40.99775142 84.33433083 41.26686946 85.82425288 41.5338192 87.31456184 C41.90311118 89.37364567 42.28006656 91.4311854 42.65893555 93.48852539 C42.97606758 95.23595787 42.97606758 95.23595787 43.29960632 97.01869202 C43.9182001 99.6518091 44.65945007 101.66909127 46 104 C41.89596637 104.08694042 37.79216871 104.14037149 33.6875 104.1875 C31.93663086 104.22520508 31.93663086 104.22520508 30.15039062 104.26367188 C28.47299805 104.27817383 28.47299805 104.27817383 26.76171875 104.29296875 C25.73006592 104.3086792 24.69841309 104.32438965 23.63549805 104.34057617 C21 104 21 104 19.19921875 102.73242188 C17.83003043 100.75445764 17.42485142 99.35739232 17.05078125 96.98828125 C16.92509766 96.23095703 16.79941406 95.47363281 16.66992188 94.69335938 C16.49299805 93.51483398 16.49299805 93.51483398 16.3125 92.3125 C16.18294922 91.51521484 16.05339844 90.71792969 15.91992188 89.89648438 C15.60242604 87.93271386 15.29976675 85.96655489 15 84 C13.98631348 84.0314209 13.98631348 84.0314209 12.95214844 84.06347656 C9.88491746 84.14671643 6.81792418 84.19868466 3.75 84.25 C2.68652344 84.28351563 1.62304688 84.31703125 0.52734375 84.3515625 C-0.49746094 84.36445313 -1.52226563 84.37734375 -2.578125 84.390625 C-3.99206543 84.4220459 -3.99206543 84.4220459 -5.43457031 84.45410156 C-8.78810767 83.86049864 -9.94379329 82.66606837 -12 80 C-12.53576461 76.2496477 -12.65618491 74.03957385 -10.609375 70.796875 C-6.53897033 67.99390172 -2.56290813 68.57474004 2.25 68.75 C3.18585938 68.76804687 4.12171875 68.78609375 5.0859375 68.8046875 C7.39167015 68.85174327 9.69530945 68.91746287 12 69 C11.87916046 68.32729568 11.75832092 67.65459137 11.63381958 66.96150208 C10.48497474 60.5643152 9.33770082 54.16684871 8.19211006 47.76907825 C7.60336007 44.48139827 7.013869 41.1938553 6.42333984 37.90649414 C5.74165488 34.11110865 5.06204806 30.31535577 4.3828125 26.51953125 C4.17439728 25.36169632 3.96598206 24.20386139 3.75125122 23.01094055 C2.38417346 15.35623412 1.15722999 7.68930527 0 0 Z " fill="#E99B58" transform="translate(93,328)"/>
<path d="M0 0 C4.77343583 -0.11195692 8.78624836 -0.08703128 13.375 1.375 C14.20773437 1.63023437 15.04046875 1.88546875 15.8984375 2.1484375 C18 3 18 3 20 5 C20.30297852 7.04711914 20.30297852 7.04711914 20.37890625 9.53515625 C20.41306641 10.42654297 20.44722656 11.31792969 20.48242188 12.23632812 C20.50884766 13.16896484 20.53527344 14.10160156 20.5625 15.0625 C20.62218611 16.90768982 20.68577463 18.75275897 20.75390625 20.59765625 C20.77783447 21.41758057 20.8017627 22.23750488 20.82641602 23.08227539 C20.7943179 25.00781262 20.7943179 25.00781262 22 26 C23.68183948 26.23287008 25.3712416 26.41264166 27.0625 26.5625 C28.70833333 26.70833333 30.35416667 26.85416667 32 27 C34.25783077 36.30116378 36.08518568 45.62772474 37.6875 55.0625 C37.91244141 56.35349609 38.13738281 57.64449219 38.36914062 58.97460938 C40 68.48712956 40 68.48712956 40 73 C20.2 73 0.4 73 -20 73 C-18.87393348 58.3611353 -18.87393348 58.3611353 -17.625 51.765625 C-17.49561035 51.07611755 -17.3662207 50.38661011 -17.23291016 49.6762085 C-16.96394373 48.25095413 -16.69166617 46.82632048 -16.41601562 45.40234375 C-15.99274715 43.21247587 -15.58162138 41.02055941 -15.171875 38.828125 C-13.14424635 28.14424635 -13.14424635 28.14424635 -12 27 C-9.42102306 26.67762788 -6.84068179 26.48732696 -4.25 26.28125 C-2.03334648 26.23799335 -2.03334648 26.23799335 -1 25 C-0.84213692 23.14825294 -0.74892644 21.2909089 -0.68359375 19.43359375 C-0.64169922 18.30888672 -0.59980469 17.18417969 -0.55664062 16.02539062 C-0.51732422 14.84138672 -0.47800781 13.65738281 -0.4375 12.4375 C-0.39431641 11.24962891 -0.35113281 10.06175781 -0.30664062 8.83789062 C-0.20016454 5.89205216 -0.09815159 2.9461257 0 0 Z " fill="#78A81F" transform="translate(249,301)"/>
<path d="M0 0 C1.47385772 21.26134239 1.47385772 21.26134239 -1.65234375 27.0703125 C-3.875 29.0625 -3.875 29.0625 -6.33984375 30.859375 C-9.86932994 33.69954891 -12.00497724 37.02753043 -14.4375 40.8125 C-15.07437744 41.78425171 -15.07437744 41.78425171 -15.72412109 42.77563477 C-17.32725875 45.2528287 -18.84681129 47.61702822 -19.9453125 50.36328125 C-21 52 -21 52 -23.43359375 52.8359375 C-24.42488281 53.01382813 -25.41617188 53.19171875 -26.4375 53.375 C-40.22736724 56.44675486 -49.90140988 64.33398781 -57.65234375 75.86328125 C-59.01051958 77.93863292 -59.01051958 77.93863292 -60 80 C-60.66 80 -61.32 80 -62 80 C-63.89643957 77.40946355 -65.64156468 74.76331269 -67.37109375 72.06054688 C-69.44506428 68.92835588 -71.29901981 66.65957355 -74.359375 64.44921875 C-75.23078125 63.64097656 -76.1021875 62.83273438 -77 62 C-77.16806111 57.07917081 -74.75273913 52.98244444 -72.4375 48.75 C-72.07817383 48.08959717 -71.71884766 47.42919434 -71.34863281 46.7487793 C-68.1253699 40.9757606 -64.45935742 35.89441668 -60 31 C-59.11570313 30.02289063 -58.23140625 29.04578125 -57.3203125 28.0390625 C-43.16692063 12.91072822 -21.2408647 -0.69906643 0 0 Z " fill="#8AC8FC" transform="translate(226,184)"/>
<path d="M0 0 C10.45811607 7.48875812 15.61964715 17.40474929 17.82810974 29.91389465 C18.64726091 36.3913483 18.49257555 42.90137879 18.4453125 49.41796875 C18.44157351 50.94924228 18.43873073 52.48051824 18.43673706 54.01179504 C18.42917026 58.00496244 18.40958321 61.99797993 18.3873291 65.99108887 C18.36671918 70.08062717 18.35770325 74.17019015 18.34765625 78.25976562 C18.32632936 86.25657854 18.29227954 94.25327052 18.25 102.25 C16.80620671 101.28472742 15.36257636 100.31921005 13.91986084 99.35232735 C12.46874349 98.39439942 10.99424663 97.47207183 9.51611328 96.55638123 C5.72379282 93.95760179 2.78479101 91.92900392 1.35449219 87.43850708 C1.03083815 84.0978268 1.02043877 80.88978514 1.125 77.53515625 C1.12169678 76.32484238 1.11839355 75.1145285 1.11499023 73.86753845 C1.11325143 70.01399945 1.17913791 66.16532481 1.25 62.3125 C1.27844608 58.46432387 1.29286854 54.61644595 1.29931641 50.76817322 C1.30789585 48.37952422 1.33151869 45.99086614 1.37255859 43.60255432 C1.49241258 33.0281153 0.46837621 24.40028911 -6.75 16.25 C-14.54036583 10.06483243 -21.97729282 9.46991694 -31.75 10.25 C-39.68166739 12.50917461 -44.57145158 18.38524187 -48.75 25.25 C-49.61419223 27.84257669 -49.92580932 29.59037707 -50.06640625 32.26171875 C-50.10830078 33.01904297 -50.15019531 33.77636719 -50.19335938 34.55664062 C-50.23267578 35.34232422 -50.27199219 36.12800781 -50.3125 36.9375 C-50.35568359 37.73478516 -50.39886719 38.53207031 -50.44335938 39.35351562 C-50.54927368 41.31881447 -50.65012551 43.28438496 -50.75 45.25 C-54.57345961 43.57027624 -57.75284048 41.1454678 -61 38.5625 C-61.55429687 38.15322266 -62.10859375 37.74394531 -62.6796875 37.32226562 C-65.70622821 34.89581488 -66.69799188 33.64446834 -67.2109375 29.75390625 C-65.70196163 18.28313205 -59.91851334 8.18031934 -51.03515625 0.8203125 C-35.48975609 -9.86216761 -15.83677045 -9.70897485 0 0 Z " fill="#FE636E" transform="translate(441.75,6.75)"/>
<path d="M0 0 C8.58 0 17.16 0 26 0 C26.68707031 4.02058594 27.37414062 8.04117187 28.08203125 12.18359375 C30.90031491 28.57379262 33.83914345 44.94144384 36.8215332 61.30249023 C37.40771957 64.51996522 37.99014099 67.73809026 38.56958008 70.95678711 C39.28313987 74.92045497 40.00265308 78.88299714 40.72657204 82.84478569 C40.99775142 84.33433083 41.26686946 85.82425288 41.5338192 87.31456184 C41.90311118 89.37364567 42.28006656 91.4311854 42.65893555 93.48852539 C42.97606758 95.23595787 42.97606758 95.23595787 43.29960632 97.01869202 C43.9182001 99.6518091 44.65945007 101.66909127 46 104 C41.89596637 104.08694042 37.79216871 104.14037149 33.6875 104.1875 C31.93663086 104.22520508 31.93663086 104.22520508 30.15039062 104.26367188 C29.03212891 104.27333984 27.91386719 104.28300781 26.76171875 104.29296875 C25.73006592 104.3086792 24.69841309 104.32438965 23.63549805 104.34057617 C21 104 21 104 19.21826172 102.81445312 C17.63083719 100.45017675 17.24469854 98.48314809 16.74609375 95.67578125 C16.53629883 94.52891846 16.32650391 93.38205566 16.11035156 92.20043945 C15.88831055 90.91741943 15.66626953 89.63439941 15.4375 88.3125 C15.19210109 86.94407118 14.94564288 85.575832 14.69824219 84.20776367 C14.12705461 81.03553148 13.56401483 77.86196468 13.00537109 74.6875 C11.84080082 68.08005094 10.64765549 61.47779435 9.45703125 54.875 C7.68883699 45.04933538 5.92321838 35.22321467 4.171875 25.39453125 C3.98248856 24.33810425 3.79310211 23.28167725 3.59797668 22.1932373 C2.28606844 14.81105566 1.11915097 7.41390096 0 0 Z " fill="#E99B58" transform="translate(281,328)"/>
<path d="M0 0 C1.77138336 0.00022659 1.77138336 0.00022659 3.57855225 0.00045776 C5.483414 0.01594162 5.483414 0.01594162 7.42675781 0.03173828 C8.73066467 0.03456818 10.03457153 0.03739807 11.37799072 0.04031372 C14.83697231 0.04793357 18.29578474 0.0675677 21.75469971 0.08972168 C25.28728955 0.11021575 28.81990685 0.11932304 32.35253906 0.12939453 C39.2783896 0.1508153 46.20412807 0.18493122 53.12988281 0.22705078 C48.64015227 9.36171464 41.74013712 19.08824354 32.12988281 23.22705078 C25.48311704 24.92336651 18.63313702 24.85738517 11.81738281 24.72705078 C10.50684433 24.70910461 10.50684433 24.70910461 9.16983032 24.6907959 C6.63505497 24.63390338 4.11048254 24.52465446 1.57910156 24.38330078 C0.81717499 24.34871765 0.05524841 24.31413452 -0.72976685 24.27850342 C-6.27542225 23.81485853 -8.98803152 22.23291742 -12.87011719 18.22705078 C-14.1084077 14.51217923 -14.42049939 11.08726566 -13.87011719 7.22705078 C-10.30181234 1.36483567 -6.66476022 -0.02848188 0 0 Z " fill="#FFF2DD" transform="translate(301.8701171875,43.77294921875)"/>
<path d="M0 0 C0 3.3 0 6.6 0 10 C-0.81339844 10.18433594 -1.62679687 10.36867187 -2.46484375 10.55859375 C-16.83827591 14.19641404 -30.04797258 20.91309072 -41 31 C-42.35158203 32.21429688 -42.35158203 32.21429688 -43.73046875 33.453125 C-54.50563609 43.61893805 -61.25540745 55.43825602 -67 69 C-68.32176485 68.09674384 -69.63215066 67.17682097 -70.9375 66.25 C-72.03384766 65.48429687 -72.03384766 65.48429687 -73.15234375 64.703125 C-75.28874024 62.73384621 -75.5996929 61.82994881 -76 59 C-74.96090522 56.34453557 -73.87743533 53.95034995 -72.5625 51.4375 C-72.19342529 50.72295654 -71.82435059 50.00841309 -71.4440918 49.2722168 C-59.54842646 26.76437247 -40.38126142 10.87947941 -16.28515625 2.74609375 C-10.70067654 1.06430395 -5.86673427 -0.23006801 0 0 Z " fill="#62B7FE" transform="translate(225,184)"/>
<path d="M0 0 C1.35117416 0.0001133 1.35117416 0.0001133 2.72964478 0.00022888 C3.70364227 0.00539017 4.67763977 0.01055145 5.68115234 0.01586914 C6.67714447 0.01728409 7.6731366 0.01869904 8.6993103 0.02015686 C11.88860037 0.02576603 15.0778209 0.03832009 18.26708984 0.05102539 C20.425943 0.05603921 22.58479725 0.06060232 24.74365234 0.06469727 C30.04315534 0.07573844 35.34261763 0.09248552 40.64208984 0.11352539 C39.16404813 3.21408037 37.69758834 5.26858782 35.20068359 7.64477539 C34.53488281 8.2905957 33.86908203 8.93641602 33.18310547 9.60180664 C31.77872015 10.94490495 30.37246203 12.28604769 28.96435547 13.62524414 C28.29984375 14.27106445 27.63533203 14.91688477 26.95068359 15.58227539 C26.0350061 16.45529297 26.0350061 16.45529297 25.10083008 17.34594727 C23.50677744 19.27748553 23.04534449 20.66646473 22.64208984 23.11352539 C18.41305365 23.20078198 14.18424972 23.25400429 9.95458984 23.30102539 C8.75640625 23.32616211 7.55822266 23.35129883 6.32373047 23.37719727 C5.16679687 23.38686523 4.00986328 23.3965332 2.81787109 23.40649414 C1.75479736 23.42220459 0.69172363 23.43791504 -0.40356445 23.45410156 C-4.77335432 22.95035337 -7.38872296 21.28323407 -10.17041016 17.92602539 C-11.72026224 14.25532308 -12.19158396 10.99389801 -11.35791016 7.11352539 C-8.50360627 2.2083513 -5.62396585 -0.0157094 0 0 Z " fill="#FFF2DD" transform="translate(267.35791015625,90.886474609375)"/>
<path d="M0 0 C1.02416016 -0.00644531 2.04832031 -0.01289062 3.10351562 -0.01953125 C9.2011781 0.06729631 12.93818908 0.5513819 17.5625 4.625 C19.7258006 7.36518076 20.48602448 9.11152151 21 12.5625 C20.32310796 17.30074429 18.20336931 20.31796471 14.48168945 23.2824707 C10.43536356 25.14336776 6.9422291 25.00030878 2.54296875 24.91796875 C1.68439774 24.91372391 0.82582672 24.90947906 -0.0587616 24.90510559 C-2.78949914 24.88836995 -5.51948712 24.85072766 -8.25 24.8125 C-10.1061091 24.79744653 -11.96222982 24.78375928 -13.81835938 24.77148438 C-18.35835985 24.73848323 -22.89780302 24.68673659 -27.4375 24.625 C-26.54990542 20.29179621 -24.26540061 17.25922308 -21.6875 13.75 C-21.25695313 13.15058594 -20.82640625 12.55117187 -20.3828125 11.93359375 C-19.51293331 10.73295211 -18.6274443 9.54346708 -17.72680664 8.36572266 C-16.41843531 6.66182695 -16.41843531 6.66182695 -15.39624023 4.86474609 C-11.57211058 -1.00687362 -6.29304124 -0.19727402 0 0 Z " fill="#FFE5C2" transform="translate(77.4375,110.375)"/>
<path d="M0 0 C0.69134033 -0.0038269 1.38268066 -0.00765381 2.0949707 -0.01159668 C3.55063338 -0.01430787 5.00634544 -0.00700211 6.46191406 0.00976562 C8.68145045 0.0311916 10.89775096 0.00994228 13.1171875 -0.015625 C14.53646543 -0.01298158 15.95574135 -0.00785629 17.375 0 C19.29892578 0.00676758 19.29892578 0.00676758 21.26171875 0.01367188 C25.24902743 0.61608738 26.92470765 1.63109556 29.6875 4.53125 C30.3125 8.03125 30.3125 8.03125 29.6875 11.53125 C26.89199981 14.48530391 25.2031576 15.45340077 21.15405273 16.06469727 C19.81009021 16.0975727 18.46542291 16.10741176 17.12109375 16.09765625 C16.4051857 16.10385483 15.68927765 16.11005341 14.95167542 16.11643982 C13.44476679 16.12351624 11.93777962 16.12040196 10.4309082 16.10766602 C8.12760863 16.09376574 5.82834945 16.12793191 3.52539062 16.16601562 C2.05729068 16.16696663 0.58918565 16.165109 -0.87890625 16.16015625 C-1.56441055 16.17341446 -2.24991486 16.18667267 -2.95619202 16.20033264 C-6.62998062 16.12886285 -8.06183669 15.77349993 -10.74194336 13.18334961 C-12.67344701 9.92174162 -13.0259086 8.25682826 -12.3125 4.53125 C-8.40227993 0.48505424 -5.52386246 0.01943067 0 0 Z " fill="#D78954" transform="translate(221.3125,463.46875)"/>
<path d="M0 0 C0.69134033 -0.0038269 1.38268066 -0.00765381 2.0949707 -0.01159668 C3.55063338 -0.01430787 5.00634544 -0.00700211 6.46191406 0.00976562 C8.68145045 0.0311916 10.89775096 0.00994228 13.1171875 -0.015625 C14.53646543 -0.01298158 15.95574135 -0.00785629 17.375 0 C19.29892578 0.00676758 19.29892578 0.00676758 21.26171875 0.01367188 C25.24902743 0.61608738 26.92470765 1.63109556 29.6875 4.53125 C30.3125 8.03125 30.3125 8.03125 29.6875 11.53125 C26.89199981 14.48530391 25.2031576 15.45340077 21.15405273 16.06469727 C19.81009021 16.0975727 18.46542291 16.10741176 17.12109375 16.09765625 C16.4051857 16.10385483 15.68927765 16.11005341 14.95167542 16.11643982 C13.44476679 16.12351624 11.93777962 16.12040196 10.4309082 16.10766602 C8.12760863 16.09376574 5.82834945 16.12793191 3.52539062 16.16601562 C2.05729068 16.16696663 0.58918565 16.165109 -0.87890625 16.16015625 C-1.56441055 16.17341446 -2.24991486 16.18667267 -2.95619202 16.20033264 C-6.62998062 16.12886285 -8.06183669 15.77349993 -10.74194336 13.18334961 C-12.67344701 9.92174162 -13.0259086 8.25682826 -12.3125 4.53125 C-8.40227993 0.48505424 -5.52386246 0.01943067 0 0 Z " fill="#D78954" transform="translate(345.3125,448.46875)"/>
<path d="M0 0 C2.22823597 0.00850564 4.4539022 -0.02025449 6.68188477 -0.05200195 C8.10571213 -0.05361437 9.529544 -0.05303565 10.95336914 -0.05004883 C12.24235107 -0.05190186 13.53133301 -0.05375488 14.859375 -0.05566406 C18.86563857 0.5283518 20.53068402 1.53196709 23.30102539 4.44604492 C23.92602539 7.94604492 23.92602539 7.94604492 23.30102539 11.44604492 C20.5055252 14.40009883 18.81668299 15.3681957 14.76757812 15.97949219 C13.4236156 16.01236763 12.0789483 16.02220668 10.73461914 16.01245117 C10.01871109 16.01864975 9.30280304 16.02484833 8.56520081 16.03123474 C7.05829218 16.03831117 5.55130502 16.03519688 4.04443359 16.02246094 C1.74113402 16.00856066 -0.55812516 16.04272684 -2.86108398 16.08081055 C-4.32918393 16.08176155 -5.79728896 16.07990392 -7.26538086 16.07495117 C-7.95088516 16.08820938 -8.63638947 16.10146759 -9.34266663 16.11512756 C-12.99823789 16.04401217 -14.46160238 15.66879154 -17.16357422 13.13330078 C-18.69897461 10.44604492 -18.69897461 10.44604492 -18.69897461 6.82104492 C-16.11739338 -1.89179174 -7.53763574 -0.04400206 0 0 Z " fill="#D78954" transform="translate(253.698974609375,396.553955078125)"/>
<path d="M0 0 C0.93585938 0.01804687 1.87171875 0.03609375 2.8359375 0.0546875 C5.14167015 0.10174327 7.44530945 0.16746287 9.75 0.25 C11.32077907 5.27649303 12.19854729 10.01119922 12.75 15.25 C9.00026094 15.36622939 5.25098536 15.4372595 1.5 15.5 C0.43652344 15.53351563 -0.62695312 15.56703125 -1.72265625 15.6015625 C-2.74746094 15.61445313 -3.77226563 15.62734375 -4.828125 15.640625 C-5.77075195 15.66157227 -6.71337891 15.68251953 -7.68457031 15.70410156 C-11.03810767 15.11049864 -12.19379329 13.91606837 -14.25 11.25 C-14.78576461 7.4996477 -14.90618491 5.28957385 -12.859375 2.046875 C-8.78897033 -0.75609828 -4.81290813 -0.17525996 0 0 Z " fill="#D78954" transform="translate(95.25,396.75)"/>
<path d="M0 0 C2.75329021 1.79562405 4.52627461 3.05254922 6 6 C6.12339449 10.56559624 5.83352347 13.99486876 2.875 17.5625 C-0.77439606 19.38719803 -2.96443968 19.57650862 -7 19 C-9.75329021 17.20437595 -11.52627461 15.94745078 -13 13 C-13.39447548 8.81855989 -13.45035186 6.69053952 -11.125 3.125 C-7.54668265 -0.45331735 -4.99886778 -0.42363286 0 0 Z " fill="#64B8FD" transform="translate(247,244)"/>
<path d="M0 0 C2.75329021 1.79562405 4.52627461 3.05254922 6 6 C6.12339449 10.56559624 5.83352347 13.99486876 2.875 17.5625 C-0.77439606 19.38719803 -2.96443968 19.57650862 -7 19 C-9.75329021 17.20437595 -11.52627461 15.94745078 -13 13 C-13.39447548 8.81855989 -13.45035186 6.69053952 -11.125 3.125 C-7.54668265 -0.45331735 -4.99886778 -0.42363286 0 0 Z " fill="#64B8FD" transform="translate(136,191)"/>
<path d="M0 0 C2.75329021 1.79562405 4.52627461 3.05254922 6 6 C6.12339449 10.56559624 5.83352347 13.99486876 2.875 17.5625 C-0.77439606 19.38719803 -2.96443968 19.57650862 -7 19 C-9.75329021 17.20437595 -11.52627461 15.94745078 -13 13 C-13.39447548 8.81855989 -13.45035186 6.69053952 -11.125 3.125 C-7.54668265 -0.45331735 -4.99886778 -0.42363286 0 0 Z " fill="#64B8FD" transform="translate(171,179)"/>
<path d="M0 0 C3.26460973 1.80412643 4.88929795 2.83394693 7 6 C7.22365311 9.11393942 6.8657027 12.00250439 6 15 C3.4375 17.5625 3.4375 17.5625 1 19 C-2.25356157 16.58606722 -3.37458792 14.52888801 -4 10.625 C-4.37381416 5.8131369 -3.06348643 3.62048397 0 0 Z " fill="#8CC9FB" transform="translate(246,244)"/>
<path d="M0 0 C3.26460973 1.80412643 4.88929795 2.83394693 7 6 C7.22365311 9.11393942 6.8657027 12.00250439 6 15 C3.4375 17.5625 3.4375 17.5625 1 19 C-2.25356157 16.58606722 -3.37458792 14.52888801 -4 10.625 C-4.37381416 5.8131369 -3.06348643 3.62048397 0 0 Z " fill="#8CC9FB" transform="translate(135,191)"/>
<path d="M0 0 C3.26460973 1.80412643 4.88929795 2.83394693 7 6 C7.22365311 9.11393942 6.8657027 12.00250439 6 15 C3.4375 17.5625 3.4375 17.5625 1 19 C-2.25356157 16.58606722 -3.37458792 14.52888801 -4 10.625 C-4.37381416 5.8131369 -3.06348643 3.62048397 0 0 Z " fill="#8CC9FB" transform="translate(170,179)"/>
</svg>
